<svg width="252" height="203" viewBox="0 0 252 203" fill="none" xmlns="http://www.w3.org/2000/svg">
<path d="M122.561 202.851C190.25 202.851 245.123 196.283 245.123 188.18C245.123 180.077 190.25 173.509 122.561 173.509C54.8726 173.509 0 180.077 0 188.18C0 196.283 54.8726 202.851 122.561 202.851Z" fill="#9400D3" fill-opacity="0.42"/>
<path d="M92.4086 11.8936C92.4086 12.4727 92.1723 13.0013 91.7882 13.3832C91.4084 13.7679 90.8803 14.0042 90.3007 14.0042H45.1855C44.0268 14.0042 43.0776 13.055 43.0776 11.8936C43.0776 11.314 43.3139 10.7859 43.698 10.404C44.0778 10.0193 44.6059 9.78297 45.1855 9.78297H47.3176C48.16 7.82597 50.1046 6.45828 52.3683 6.45828C53.8918 6.45828 55.2697 7.07874 56.2678 8.07953C57.5968 5.82546 60.0481 4.31165 62.8549 4.31165C63.6268 4.31165 64.3692 4.42822 65.0703 4.64041C66.5379 1.88031 69.4398 0.000671387 72.7844 0.000671387C76.801 0.000671387 80.1794 2.71243 81.1995 6.40241C81.9393 6.03228 82.7746 5.82063 83.6604 5.82063C86.1654 5.82063 88.2781 7.49291 88.9426 9.78351H90.3012C91.4594 9.78351 92.4086 10.7327 92.4086 11.8936Z" fill="#9400D3" fill-opacity="0.42"/>
<path d="M234.258 25.3771C234.258 25.9567 234.023 26.4847 233.638 26.8667C233.258 27.2513 232.73 27.4877 232.15 27.4877H187.036C185.877 27.4877 184.928 26.5385 184.928 25.3771C184.928 24.7974 185.164 24.2694 185.548 23.8874C185.928 23.5028 186.456 23.2664 187.036 23.2664H189.168C190.01 21.3094 191.955 19.9412 194.219 19.9412C195.742 19.9412 197.12 20.5616 198.118 21.5624C199.447 19.3084 201.898 17.7946 204.705 17.7946C205.477 17.7946 206.22 17.9111 206.921 18.1233C208.388 15.3632 211.29 13.4836 214.635 13.4836C218.651 13.4836 222.03 16.1953 223.05 19.8853C223.79 19.5152 224.625 19.3035 225.511 19.3035C228.016 19.3035 230.128 20.9758 230.793 23.2664H232.152C233.309 23.267 234.258 24.2162 234.258 25.3771Z" fill="#9400D3" fill-opacity="0.42"/>
<path d="M182.75 11.8935C182.75 12.4731 182.514 13.0012 182.13 13.3831C181.75 13.7677 181.222 14.0041 180.642 14.0041H135.527C134.368 14.0041 133.419 13.0549 133.419 11.8935C133.419 11.3144 133.655 10.7858 134.04 10.4038C134.419 10.0192 134.947 9.78284 135.527 9.78284H137.66C138.502 7.82584 140.447 6.4576 142.71 6.4576C144.234 6.4576 145.612 7.07807 146.61 8.07886C147.939 5.82479 150.39 4.31098 153.197 4.31098C153.968 4.31098 154.711 4.42755 155.412 4.63974C156.879 1.87964 159.781 0 163.126 0C167.142 0 170.521 2.71175 171.541 6.40228C172.281 6.03215 173.116 5.82049 174.002 5.82049C176.507 5.82049 178.62 7.49278 179.284 9.78337H180.643C181.801 9.78337 182.75 10.7326 182.75 11.8935Z" fill="#9400D3" fill-opacity="0.42"/>
<path d="M40.9116 56.032C40.8541 56.1045 40.795 56.1722 40.7338 56.2324C38.9879 57.9622 35.9619 51.3391 38.7585 44.7112C41.5551 38.0833 39.2511 29.3271 35.5004 28.9859C31.7503 28.6448 35.0105 34.4701 30.1763 33.5763C25.3421 32.6824 24.5975 19.8042 18.3586 20.5149C12.8985 21.1359 16.3978 30.6743 19.1101 34.6931C21.6693 38.4867 20.9097 42.3443 18.0362 41.5009C15.1639 40.6586 12.2926 44.6462 16.5692 50.839C20.8458 57.0317 26.6378 63.1955 23.8503 63.9062C21.0628 64.6185 15.2638 58.5305 12.7938 65.7354C11.6898 68.9553 18.7056 80.0994 34.2778 80.9815L40.9116 73.7965V56.032Z" fill="#9400D3" fill-opacity="0.42"/>
<path d="M39.0867 73.796C32.5131 56.3484 21.4635 29.6166 21.3292 29.2916C21.2443 29.0869 21.341 28.8511 21.5468 28.7657C21.7525 28.6808 21.9873 28.7791 22.0727 28.9843C22.2075 29.312 33.379 56.335 39.9467 73.7954L39.0867 73.796Z" fill="black"/>
<path d="M29.2894 48.2416C29.2233 48.2357 29.1583 48.2131 29.0998 48.1734C28.916 48.0482 28.8688 47.7979 28.9934 47.6142C29.0283 47.5631 32.4669 42.4909 33.4875 38.8332C33.5472 38.6188 33.7696 38.4937 33.9834 38.5538C34.1972 38.6135 34.3229 38.8353 34.2627 39.0497C33.2061 42.8358 29.8029 47.8559 29.6584 48.0681C29.5736 48.1927 29.4301 48.2545 29.2894 48.2416Z" fill="black"/>
<path d="M30.7688 52.5339C30.7607 52.5333 30.7527 52.5323 30.7446 52.5312C30.498 52.4941 24.6663 51.5938 20.7141 49.43C20.5191 49.3231 20.4477 49.0786 20.5546 48.8836C20.6615 48.6886 20.9059 48.6172 21.1009 48.7241C24.9263 50.8186 30.8064 51.727 30.8655 51.7356C31.0852 51.7689 31.2361 51.9741 31.2028 52.1938C31.1706 52.4049 30.9794 52.5527 30.7688 52.5339Z" fill="black"/>
<path d="M40.9115 64.9081C39.2151 66.9451 37.401 68.5143 37.3704 68.5406C37.2017 68.6856 37.1823 68.9392 37.3268 69.1079C37.3978 69.1906 37.495 69.2379 37.5954 69.247C37.7002 69.2567 37.8082 69.2255 37.8941 69.1519C38.0069 69.0552 39.4138 67.8385 40.9115 66.1512V64.9081Z" fill="black"/>
<path d="M32.5786 72.7124C30.2858 72.5035 27.7626 72.0646 25.6864 71.1809C25.4817 71.0939 25.3866 70.8575 25.4737 70.6528C25.5607 70.4482 25.7971 70.3531 26.0017 70.4401C30.9557 72.5486 38.8869 72.0152 38.9664 72.0092C39.1871 71.9931 39.3805 72.1607 39.3961 72.3821C39.4117 72.6039 39.2446 72.7962 39.0233 72.8118C38.8251 72.8268 35.9527 73.0197 32.5786 72.7124Z" fill="black"/>
<path d="M211.792 149.875C211.849 149.948 211.908 150.015 211.97 150.076C213.716 151.806 216.742 145.183 213.945 138.555C211.148 131.927 213.452 123.171 217.203 122.829C220.953 122.488 217.693 128.314 222.527 127.42C227.361 126.526 228.106 113.648 234.345 114.358C239.805 114.979 236.306 124.518 233.593 128.537C231.034 132.33 231.794 136.188 234.667 135.344C237.54 134.502 240.411 138.49 236.134 144.682C231.858 150.875 226.066 157.039 228.853 157.75C231.641 158.462 237.44 152.375 239.91 159.579C241.014 162.799 238.628 165.564 235.653 167.64H211.792V149.875Z" fill="#9400D3" fill-opacity="0.42"/>
<path d="M213.617 167.639C220.191 150.192 231.24 123.461 231.375 123.135C231.46 122.93 231.363 122.695 231.157 122.609C230.951 122.524 230.717 122.623 230.631 122.828C230.496 123.155 219.325 150.179 212.757 167.639H213.617Z" fill="#1D1B20"/>
<path d="M223.414 142.085C223.48 142.079 223.545 142.057 223.604 142.017C223.787 141.892 223.835 141.641 223.71 141.458C223.675 141.407 220.237 136.334 219.216 132.677C219.156 132.462 218.933 132.337 218.72 132.397C218.506 132.457 218.381 132.679 218.44 132.893C219.497 136.679 222.9 141.699 223.044 141.911C223.13 142.036 223.273 142.098 223.414 142.085Z" fill="#1D1B20"/>
<path d="M221.935 146.377C221.943 146.377 221.951 146.376 221.959 146.375C222.205 146.338 228.037 145.437 231.989 143.273C232.184 143.167 232.256 142.922 232.149 142.727C232.042 142.532 231.798 142.461 231.603 142.568C227.778 144.662 221.898 145.57 221.838 145.579C221.619 145.612 221.468 145.818 221.501 146.037C221.533 146.248 221.725 146.396 221.935 146.377Z" fill="#1D1B20"/>
<path d="M211.792 158.752C213.488 160.789 215.302 162.358 215.333 162.384C215.502 162.529 215.521 162.783 215.377 162.952C215.306 163.035 215.208 163.081 215.108 163.091C215.003 163.101 214.895 163.069 214.809 162.996C214.696 162.899 213.29 161.682 211.792 159.995V158.752Z" fill="#1D1B20"/>
<path d="M220.125 166.556C222.418 166.347 224.941 165.908 227.017 165.024C227.222 164.937 227.317 164.701 227.23 164.496C227.143 164.292 226.906 164.197 226.702 164.284C221.747 166.392 213.817 165.859 213.737 165.853C213.516 165.837 213.323 166.004 213.307 166.225C213.292 166.447 213.458 166.64 213.68 166.655C213.879 166.67 216.751 166.863 220.125 166.556Z" fill="#1D1B20"/>
<path d="M237.032 63.2632C239.265 54.2555 243.039 46.138 246.601 49.777C250.166 53.4191 243.407 67.2648 234.075 74.6216L231.499 77.8835C238.207 72.403 248.664 69.5 251.263 72.9558C253.845 76.3901 246.709 77.6906 239.993 77.7916C234.88 77.8684 231.551 79.09 229.925 79.877L217.758 95.2826C228.405 86.6344 244.915 82.0687 249.027 87.5374C253.125 92.9867 241.801 95.05 231.144 95.2101C223.091 95.331 217.823 97.2434 215.222 98.4929L212.796 101.565C212.198 101.227 211.601 100.887 211.007 100.543L225.482 82.2149C225.671 80.2579 225.646 77.4747 224.866 73.9641C223.407 67.4071 223.019 60.1641 226.958 61.8805C230.377 63.3701 230.549 71.6402 228.11 78.8875L233.116 72.5491C234.329 70.3241 236.069 67.1509 237.032 63.2632Z" fill="#9400D3" fill-opacity="0.42"/>
<path d="M125.931 21.3293C126.147 12.0514 124.641 3.22694 120.247 5.80064C115.849 8.37648 118.728 23.5125 125.796 33.0654L127.423 36.8897C122.394 29.8379 113.069 24.286 109.653 26.9371C106.257 29.5709 112.8 32.7028 119.254 34.5668C124.166 35.9856 127.057 38.0403 128.418 39.2275L136.104 57.2912C128.107 46.1471 113.38 37.3989 107.974 41.5933C102.587 45.7727 112.969 50.7423 123.208 53.7001C130.946 55.9353 135.525 59.166 137.706 61.0559L139.238 64.6577C139.905 64.4901 140.57 64.3182 141.234 64.1426L132.089 42.6521C132.422 40.7139 133.178 38.0355 134.854 34.8542C137.986 28.9118 140.267 22.026 136.014 22.6454C132.324 23.1832 129.982 31.117 130.429 38.7505L127.267 31.3184C126.682 28.8522 125.838 25.3335 125.931 21.3293Z" fill="#9400D3" fill-opacity="0.42"/>
<path d="M16.7287 124.243C14.4962 115.236 10.7218 107.118 7.16025 110.757C3.59489 114.399 10.3533 128.245 19.686 135.602L22.2618 138.864C15.5544 133.384 5.09742 130.481 2.49848 133.936C-0.0838103 137.371 7.05227 138.671 13.7683 138.772C18.8807 138.849 22.2103 140.071 23.8364 140.858L36.0033 156.264C25.3566 147.615 8.8465 143.05 4.73428 148.518C0.636567 153.968 11.9601 156.031 22.6169 156.191C30.67 156.312 35.9383 158.225 38.5388 159.474L40.9648 162.546C41.5632 162.208 42.16 161.868 42.7542 161.524L28.2789 143.196C28.0899 141.238 28.1146 138.456 28.8956 134.945C30.3541 128.389 30.7425 121.145 26.8033 122.862C23.3846 124.351 23.2121 132.621 25.651 139.869L20.6449 133.53C19.4314 131.304 17.6925 128.131 16.7287 124.243Z" fill="#9400D3" fill-opacity="0.42"/>
<path d="M218.384 62.6809V164.142C218.384 168.325 214.994 171.715 210.809 171.715H37.8963C33.7127 171.715 30.3219 168.325 30.3219 164.142V62.6809C30.3219 58.4972 33.7121 55.1064 37.8963 55.1064H210.809C214.993 55.1064 218.384 58.4967 218.384 62.6809Z" fill="black"/>
<path d="M218.384 113.41V164.141C218.384 168.324 214.993 171.715 210.81 171.715H37.8958C33.7127 171.715 30.3224 168.324 30.3224 164.141V113.41H218.384Z" fill="#18285D"/>
<path d="M210.03 67.8374V158.984C210.03 161.666 207.856 163.841 205.175 163.841H43.5331C42.0999 163.841 40.8106 163.219 39.9221 162.228C39.1464 161.371 38.6763 160.231 38.6763 158.984V67.8374C38.6763 65.1557 40.8514 62.9807 43.5331 62.9807H205.175C206.071 62.9807 206.91 63.224 207.631 63.6489C209.066 64.4923 210.03 66.0539 210.03 67.8374Z" fill="white"/>
<path d="M210.03 67.8374V158.984C210.03 161.666 207.856 163.841 205.175 163.841H43.5331C42.0999 163.841 40.8106 163.219 39.9221 162.228C39.1464 161.371 38.6763 160.231 38.6763 158.984V67.8374C38.6763 65.1557 40.8514 62.9807 43.5331 62.9807H205.175C206.071 62.9807 206.91 63.224 207.631 63.6489C209.066 64.4923 210.03 66.0539 210.03 67.8374Z" fill="white"/>
<path d="M44.1487 101.811C44.1487 102.538 44.7375 103.127 45.4643 103.127H73.3673C74.0941 103.127 74.6828 102.538 74.6828 101.811C74.6828 101.084 74.0941 100.496 73.3673 100.496H45.4643C44.738 100.496 44.1487 101.085 44.1487 101.811Z" fill="#DBE6F7"/>
<path d="M44.1487 108.526C44.1487 109.252 44.7375 109.841 45.4643 109.841H73.3673C74.0941 109.841 74.6828 109.252 74.6828 108.526C74.6828 107.799 74.0941 107.21 73.3673 107.21H45.4643C44.738 107.21 44.1487 107.799 44.1487 108.526Z" fill="#DBE6F7"/>
<path d="M44.1487 115.059C44.1487 115.686 44.73 116.195 45.4466 116.195H72.9719C73.6885 116.195 74.2697 115.687 74.2697 115.059C74.2697 114.433 73.6885 113.924 72.9719 113.924H45.4466C44.73 113.924 44.1487 114.433 44.1487 115.059Z" fill="#DBE6F7"/>
<path d="M44.1487 125.095C44.1487 125.822 44.7375 126.41 45.4643 126.41H73.3673C74.0941 126.41 74.6828 125.822 74.6828 125.095C74.6828 124.368 74.0941 123.779 73.3673 123.779H45.4643C44.738 123.779 44.1487 124.368 44.1487 125.095Z" fill="#DBE6F7"/>
<path d="M44.1487 131.809C44.1487 132.536 44.7375 133.125 45.4643 133.125H73.3673C74.0941 133.125 74.6828 132.536 74.6828 131.809C74.6828 131.082 74.0941 130.494 73.3673 130.494H45.4643C44.738 130.494 44.1487 131.082 44.1487 131.809Z" fill="#DBE6F7"/>
<path d="M44.1487 138.523C44.1487 139.25 44.7375 139.839 45.4643 139.839H73.3673C74.0941 139.839 74.6828 139.25 74.6828 138.523C74.6828 137.796 74.0941 137.207 73.3673 137.207H45.4643C44.738 137.207 44.1487 137.797 44.1487 138.523Z" fill="#DBE6F7"/>
<path d="M173.832 101.811C173.832 102.538 174.42 103.127 175.147 103.127H203.05C203.777 103.127 204.366 102.538 204.366 101.811C204.366 101.084 203.777 100.496 203.05 100.496H175.147C174.421 100.496 173.832 101.085 173.832 101.811Z" fill="#DBE6F7"/>
<path d="M173.832 108.526C173.832 109.252 174.42 109.841 175.147 109.841H203.05C203.777 109.841 204.366 109.252 204.366 108.526C204.366 107.799 203.777 107.21 203.05 107.21H175.147C174.421 107.21 173.832 107.799 173.832 108.526Z" fill="#DBE6F7"/>
<path d="M173.832 115.059C173.832 115.686 174.413 116.195 175.129 116.195H202.655C203.371 116.195 203.953 115.687 203.953 115.059C203.953 114.433 203.371 113.924 202.655 113.924H175.129C174.413 113.924 173.832 114.433 173.832 115.059Z" fill="#DBE6F7"/>
<path d="M173.832 125.095C173.832 125.822 174.42 126.41 175.147 126.41H203.05C203.777 126.41 204.366 125.822 204.366 125.095C204.366 124.368 203.777 123.779 203.05 123.779H175.147C174.421 123.779 173.832 124.368 173.832 125.095Z" fill="#DBE6F7"/>
<path d="M173.832 131.809C173.832 132.536 174.42 133.125 175.147 133.125H203.05C203.777 133.125 204.366 132.536 204.366 131.809C204.366 131.082 203.777 130.494 203.05 130.494H175.147C174.421 130.494 173.832 131.082 173.832 131.809Z" fill="#DBE6F7"/>
<path d="M173.832 138.523C173.832 139.25 174.42 139.839 175.147 139.839H203.05C203.777 139.839 204.366 139.25 204.366 138.523C204.366 137.796 203.777 137.207 203.05 137.207H175.147C174.421 137.207 173.832 137.797 173.832 138.523Z" fill="#DBE6F7"/>
<path d="M210.03 67.8374V72.9058H38.6763V67.8374C38.6763 65.1557 40.8514 62.9807 43.5331 62.9807H205.175C206.071 62.9807 206.91 63.224 207.631 63.6489C209.066 64.4923 210.03 66.0539 210.03 67.8374Z" fill="#DBE6F7"/>
<path d="M209.153 65.0591H39.5525C40.4281 63.8026 41.8845 62.9812 43.5336 62.9812H205.174C206.823 62.9812 208.28 63.8026 209.153 65.0591Z" fill="#021147"/>
<path d="M192.248 68.4611C192.248 69.3985 191.488 70.1587 190.55 70.1587C189.612 70.1587 188.853 69.3985 188.853 68.4611C188.853 67.5237 189.613 66.7631 190.55 66.7631C191.488 66.7631 192.248 67.5232 192.248 68.4611Z" fill="#707FFF"/>
<path d="M197.75 68.4611C197.75 69.3985 196.989 70.1587 196.052 70.1587C195.114 70.1587 194.354 69.3985 194.354 68.4611C194.354 67.5237 195.114 66.7631 196.052 66.7631C196.989 66.7631 197.75 67.5232 197.75 68.4611Z" fill="#3B3E7D"/>
<path d="M202.986 68.4611C202.986 69.3985 202.226 70.1587 201.289 70.1587C200.351 70.1587 199.591 69.3985 199.591 68.4611C199.591 67.5237 200.351 66.7631 201.289 66.7631C202.226 66.7631 202.986 67.5232 202.986 68.4611Z" fill="#4F60D9"/>
<path d="M169.521 97.2445V158.9H80.2186V97.2445H84.3255L84.2879 97.2101L84.3325 97.2445H169.521Z" fill="#DBE6F7"/>
<path d="M169.52 94.738H80.2632V156.394H169.52V94.738Z" fill="black"/>
<path d="M169.52 92.4807H80.2632V154.137H169.52V92.4807Z" fill="#9400D3"/>
<g opacity="0.5">
<path d="M86.3985 113.271V140.084C86.3985 140.976 85.6755 141.7 84.7832 141.7C83.8909 141.7 83.1678 140.976 83.1678 140.084V113.271C83.1678 112.379 83.8909 111.656 84.7832 111.656C85.6749 111.656 86.3985 112.379 86.3985 113.271Z" fill="white"/>
</g>
<g opacity="0.5">
<path d="M86.3985 105.066V107.779C86.3985 108.672 85.6755 109.395 84.7832 109.395C83.8909 109.395 83.1678 108.672 83.1678 107.779V105.066C83.1678 104.174 83.8909 103.45 84.7832 103.45C85.6755 103.45 86.3985 104.174 86.3985 105.066Z" fill="white"/>
</g>
<path d="M116.293 124.388L82.8488 154.136H80.2632V152.564L114.371 122.228L116.293 124.388Z" fill="#1D1B20" fill-opacity="0.7"/>
<path d="M169.521 152.773V154.136H166.702L133.257 124.388L135.18 122.228L169.521 152.773Z" fill="#1D1B20" fill-opacity="0.7"/>
<path d="M169.518 92.4802L155.996 104.506L127.831 129.555C126.154 131.048 123.625 131.048 121.947 129.555L93.7881 104.51L80.261 92.4802H169.518Z" fill="#4E006F" fill-opacity="0.67"/>
<path d="M147.082 111.764L147.082 111.764L144.125 114.395L144.124 114.395L139.534 118.478L139.534 118.478L136.576 121.109L136.576 121.109L131.985 125.192L131.985 125.192L129.027 127.823L129.027 127.823L127.499 129.181L127.499 129.182C126.012 130.506 123.769 130.506 122.28 129.182L122.28 129.181L120.752 127.823L120.752 127.823L117.795 125.192L117.795 125.192L113.204 121.109L113.204 121.109L110.245 118.478L109.921 118.842L110.245 118.478L105.655 114.395L105.655 114.395L102.697 111.764L102.697 111.764L94.2881 104.286V82.6296C94.2881 80.9353 95.6609 79.5621 97.3557 79.5621H152.429C154.123 79.5621 155.496 80.9352 155.496 82.6296V104.281L147.082 111.764Z" fill="white" stroke="black"/>
<path d="M116.323 87.5804H101.251C100.594 87.5804 100.062 87.048 100.062 86.3916V86.1375C100.062 85.481 100.594 84.9487 101.251 84.9487H116.322C116.979 84.9487 117.511 85.481 117.511 86.1375V86.3916C117.512 87.0486 116.979 87.5804 116.323 87.5804Z" fill="#34A853"/>
<path d="M150.401 94.6263H101.378C100.651 94.6263 100.063 94.0375 100.063 93.3107C100.063 92.5839 100.651 91.9951 101.378 91.9951H150.401C151.128 91.9951 151.717 92.5839 151.717 93.3107C151.717 94.0375 151.128 94.6263 150.401 94.6263Z" fill="#34A853"/>
<path d="M150.401 101.341H101.378C100.651 101.341 100.063 100.752 100.063 100.025C100.063 99.2983 100.651 98.7095 101.378 98.7095H150.401C151.128 98.7095 151.717 99.2983 151.717 100.025C151.717 100.751 151.128 101.341 150.401 101.341Z" fill="#34A853"/>
<path d="M150.401 108.055H101.378C100.651 108.055 100.063 107.466 100.063 106.739C100.063 106.012 100.651 105.423 101.378 105.423H150.401C151.128 105.423 151.717 106.012 151.717 106.739C151.717 107.466 151.128 108.055 150.401 108.055Z" fill="#34A853"/>
<path d="M147.415 112.138L144.456 114.769H105.322L102.364 112.138H147.415Z" fill="#34A853"/>
<path d="M139.865 118.852L136.908 121.483H112.871L109.913 118.852H139.865Z" fill="#34A853"/>
<path d="M132.317 125.565L129.359 128.197H120.42L117.462 125.565H132.317Z" fill="#34A853"/>
<path d="M235.951 167.66V168.309C235.951 171.537 234.915 174.521 233.158 176.949C230.478 180.656 226.116 183.068 221.191 183.068H27.5145C22.5895 183.068 18.2281 180.656 15.548 176.949C13.7903 174.521 12.7551 171.537 12.7551 168.309V167.66H235.951Z" fill="#18285D"/>
<path d="M99.3379 167.66V167.809C99.3379 168.978 100.121 169.925 101.086 169.925H146.65C147.615 169.925 148.398 168.977 148.398 167.809V167.66H99.3379Z" fill="white"/>
<path d="M233.158 176.949C230.478 180.656 226.116 183.068 221.191 183.068H27.5145C22.5895 183.068 18.228 180.656 15.548 176.949H233.158Z" fill="#021147"/>
<path d="M29.7164 158.134L27.7616 162.318L31.8948 162.382L33.4892 158.575L29.7164 158.134Z" fill="#FAB083"/>
<path d="M29.0627 162.056C29.0627 162.056 28.214 160.916 27.5398 160.965C26.8656 161.014 21.665 165.148 19.8832 165.49C18.1013 165.832 18.2668 167.647 19.0124 167.647C21.1601 167.647 32.9875 167.561 32.9875 167.561C32.9875 167.561 33.3689 163.427 32.915 162.163C32.461 160.899 30.4562 162.356 29.0627 162.056Z" fill="black"/>
<path d="M26.1881 164.942C26.251 164.96 26.3219 164.954 26.3832 164.919C26.5029 164.851 26.5443 164.699 26.4766 164.579C26.4541 164.539 25.9099 163.594 25.1772 163.225C24.2027 162.733 23.4431 163.283 23.4109 163.307C23.3002 163.389 23.2771 163.546 23.3593 163.657C23.4415 163.767 23.5978 163.79 23.7085 163.708C23.7289 163.693 24.258 163.322 24.9521 163.671C25.5489 163.972 26.0377 164.818 26.0426 164.827C26.0759 164.885 26.1291 164.924 26.1881 164.942Z" fill="white"/>
<path d="M26.9322 164.239C26.995 164.258 27.0654 164.252 27.1272 164.217C27.247 164.149 27.2889 163.996 27.2206 163.876C27.1975 163.836 26.6539 162.891 25.9212 162.522C24.9462 162.029 24.1871 162.581 24.1549 162.604C24.0442 162.686 24.0211 162.843 24.1033 162.953C24.185 163.064 24.3418 163.087 24.4525 163.005C24.4734 162.99 25.0026 162.619 25.6961 162.968C26.2956 163.27 26.7818 164.115 26.786 164.123C26.8199 164.181 26.8725 164.221 26.9322 164.239Z" fill="white"/>
<path d="M25.1798 165.512C25.2432 165.531 25.3136 165.525 25.3748 165.49C25.4946 165.422 25.5365 165.269 25.4683 165.149C25.4452 165.11 24.9016 164.164 24.1688 163.795C23.1938 163.303 22.4348 163.854 22.4026 163.877C22.2919 163.96 22.2688 164.116 22.351 164.227C22.4332 164.337 22.5895 164.36 22.7002 164.278C22.7211 164.263 23.2502 163.892 23.9438 164.241C24.5433 164.543 25.0294 165.388 25.0337 165.397C25.0676 165.455 25.1208 165.494 25.1798 165.512Z" fill="white"/>
<path d="M28.5389 159.498L30.3702 160.096L31.3882 160.156L33.1379 160.259C35.4494 158.431 41.6846 152.929 42.8997 149.685C42.8997 149.685 48.7208 165.523 59.8133 165.523C60.5331 165.523 60.8329 159.058 59.0247 157.128C59.0247 157.128 48.8003 138.073 42.1724 140.096C39.2038 141.001 36.2009 145.322 28.5389 159.498Z" fill="#3B3E7D"/>
<path d="M30.3702 160.096L31.3882 160.156C38.1923 155.004 41.3446 150.641 42.7955 147.847C42.8455 147.749 42.9271 147.718 42.9819 147.719C43.0292 147.721 43.0636 147.747 43.0856 147.802C46.3437 155.471 50.2539 160.075 52.9603 162.587C55.91 165.324 58.0679 166.227 58.1571 166.264L58.2818 165.96L58.4064 165.656C58.3854 165.647 56.2447 164.747 53.375 162.076C50.7245 159.61 46.8927 155.087 43.6894 147.544C43.5675 147.254 43.3112 147.074 43.0066 147.062C42.6784 147.049 42.3711 147.238 42.2121 147.543C40.7494 150.361 37.5079 154.814 30.3702 160.096Z" fill="#021147"/>
<path d="M34.9724 159.011C34.6812 159.556 34.1811 160.324 33.703 160.696C33.703 160.696 29.7847 160.515 27.8793 159.558L28.7339 157.566C28.7339 157.566 31.8529 158.704 34.9724 159.011Z" fill="#3B3E7D"/>
<path d="M59.5356 124.731C59.5356 124.731 51.9423 133.795 48.753 135.284C47.3531 135.937 45.9704 136.168 44.9492 136.204C44.6064 136.217 43.7147 136.145 43.6658 136.144C43.6615 136.144 43.6578 136.145 43.6578 136.145C39.8689 135.675 35.4156 134.535 29.8438 132.266L30.6743 129.685C30.6743 129.685 34.0221 130.396 38.1247 130.689C39.6374 130.795 43.127 130.955 44.4173 131.164C44.737 131.02 45.0518 130.865 45.3585 130.697C51.0205 127.641 54.7572 121.419 54.7572 121.419C56.5493 122.091 58.6068 123.348 59.5356 124.731Z" fill="#9400D3" fill-opacity="0.8"/>
<path d="M30.8156 129.48C30.8156 129.48 30.0399 127.52 28.9843 126.961C27.9287 126.402 24.9247 124.432 24.2839 125.022C23.643 125.611 23.7752 128.44 26.4681 130.806C28.1834 132.312 29.9121 132.249 29.9121 132.249L30.8156 129.48Z" fill="#FAB083"/>
<path d="M24.091 126.822L28.525 130.964C28.6915 131.121 28.9923 131.166 29.1981 131.066L31.9157 129.752C32.0001 129.711 32.0554 129.652 32.079 129.585L32.0855 129.564L32.2187 129.11L31.4978 128.837L24.5218 126.187L24.1436 126.044L24.0018 126.524L23.9911 126.557C23.9889 126.561 23.9884 126.565 23.99 126.569C23.9733 126.653 24.0077 126.745 24.091 126.822Z" fill="#18285D"/>
<path d="M29.3334 130.606L32.0522 129.291C32.2574 129.192 32.2885 128.986 32.1225 128.831L27.688 124.689C27.522 124.533 27.2212 124.488 27.016 124.587L24.2972 125.902C24.092 126.001 24.0609 126.207 24.2274 126.362L28.6614 130.504C28.8279 130.66 29.1288 130.705 29.3334 130.606Z" fill="#3B3E7D"/>
<path d="M29.0036 129.863L31.1099 128.845C31.3151 128.746 31.3463 128.54 31.1803 128.384L27.7315 125.163C27.5655 125.008 27.2641 124.962 27.0595 125.061L24.9531 126.08C24.7485 126.179 24.7168 126.385 24.8833 126.54L28.3321 129.762C28.4981 129.917 28.7989 129.963 29.0036 129.863Z" fill="#58619B"/>
<path d="M29.06 125.97C29.06 125.97 28.4283 126.068 28.3638 126.611C28.2994 127.154 28.8871 126.938 29.2647 126.819C29.6424 126.7 29.9829 126.82 30.0345 126.881C30.2 127.075 30.1715 125.809 29.06 125.97Z" fill="#FAB083"/>
<path d="M26.236 128.918C26.236 128.918 25.2449 127.29 24.4853 126.4C23.9793 125.807 23.7209 126.667 24.0674 127.267C24.4138 127.866 25.0972 129.087 26.236 128.918Z" fill="#FAB083"/>
<path d="M64.8662 115.341C64.8662 115.341 69.6515 115.365 71.8331 117.337C74.0146 119.309 71.9324 123.316 69.5661 123.83C67.1998 124.343 59.8107 123.468 59.0425 122.201C58.2737 120.935 58.761 115.438 64.8662 115.341Z" fill="#9400D3" fill-opacity="0.87"/>
<path d="M72.4127 158.285L74.7387 143.286L74.2343 122.594L68.669 120.712L68.3703 120.611L67.1213 120.189L66.1296 119.854L60.2538 120.663L59.2976 120.795L58.9602 120.841L54.7567 121.42C54.717 134.719 55.9939 137.591 53.5357 148.409C52.3001 152.487 56.8383 166.938 72.4127 158.285Z" fill="#9400D3" fill-opacity="0.87"/>
<path d="M64.467 123.888C68.677 123.872 69.6541 120.162 69.6638 120.124C69.6848 120.041 69.6343 119.957 69.551 119.936C69.4683 119.914 69.3834 119.965 69.3624 120.048C69.3259 120.193 68.4288 123.562 64.467 123.577C64.445 123.577 64.4235 123.577 64.4015 123.577C64.3182 123.581 64.2457 123.645 64.2457 123.731C64.2451 123.817 64.3144 123.887 64.4004 123.887C64.4224 123.888 64.4455 123.888 64.467 123.888Z" fill="#9400D3" fill-opacity="0.8"/>
<path d="M60.5116 123.306C60.596 123.306 60.6653 123.238 60.6663 123.153C60.6674 123.068 60.5992 122.997 60.5138 122.995C60.4584 122.994 59.2342 122.945 58.9178 121.29C58.9017 121.206 58.8211 121.151 58.7362 121.167C58.6519 121.183 58.5965 121.265 58.6132 121.348C58.979 123.261 60.4934 123.306 60.5089 123.306C60.5089 123.306 60.5106 123.306 60.5116 123.306Z" fill="#9400D3" fill-opacity="0.8"/>
<path d="M67.3093 144.299C67.3093 144.299 67.9932 149.519 66.6008 152.073C66.6008 152.073 59.6769 152.558 54.6428 150.579C54.6428 150.579 55.9004 146.935 55.9197 143.378L67.3093 144.299Z" fill="#9400D3" fill-opacity="0.8"/>
<path d="M63.6118 138.774C63.6161 138.774 63.621 138.774 63.6253 138.774C63.7107 138.766 63.7741 138.691 63.766 138.605C63.4179 134.735 64.8678 124.965 64.8823 124.867C64.8952 124.782 64.8366 124.703 64.7518 124.69C64.6669 124.677 64.5879 124.736 64.575 124.821C64.56 124.92 63.1047 134.726 63.4566 138.633C63.4641 138.714 63.5318 138.775 63.6118 138.774Z" fill="white"/>
<path d="M58.4907 138.016C58.495 138.016 58.4999 138.016 58.5042 138.016C58.5896 138.008 58.6524 137.933 58.6449 137.847C58.2968 133.977 59.7956 124.131 59.8106 124.032C59.8235 123.947 59.7655 123.868 59.6806 123.855C59.5957 123.842 59.5168 123.901 59.5034 123.985C59.4883 124.085 57.9836 133.969 58.335 137.876C58.343 137.956 58.4112 138.017 58.4907 138.016Z" fill="white"/>
<path d="M78.4282 163.522C78.4282 163.522 76.7044 165.86 76.8462 167.069C76.9885 168.279 78.5496 170.559 79.7975 170.669C81.0454 170.779 78.3638 167.739 78.9966 167.838C79.7626 167.956 84.9331 172.199 86.0247 172.199C87.1157 172.199 84.7408 170.227 83.8157 169.729C83.8157 169.729 86.2621 170.823 86.8315 171.392C87.401 171.962 87.8141 170.741 84.968 169.009C84.968 169.009 87.5788 170.491 87.7566 170.515C88.3373 170.592 86.6806 168.649 85.2538 167.947C85.2538 167.947 87.3467 168.966 87.5594 168.97C87.8538 168.977 87.2226 168.292 85.6691 167.43C84.2718 166.656 81.9818 163.1 81.9818 163.1L78.4282 163.522Z" fill="#FAB083"/>
<path d="M74.2348 122.594C74.2348 122.594 80.0376 133.739 81.3591 145.397L81.9817 163.1C81.9817 163.1 81.3854 164.361 78.4282 163.522L75.5681 145.822L73.3764 137.724C73.3764 137.724 72.3799 127.757 74.2348 122.594Z" fill="#9400D3" fill-opacity="0.87"/>
<path d="M56.4118 110.543C57.0285 114.03 60.3548 116.357 63.8417 115.741C67.3286 115.124 69.6557 111.798 69.0396 108.311C68.4229 104.824 65.0966 102.497 61.6096 103.113C58.1227 103.729 55.7956 107.055 56.4118 110.543Z" fill="#021147"/>
<path d="M56.3151 109.392C56.3151 109.392 54.4397 109.214 54.3688 107.437C54.3087 105.924 56.213 106.576 55.8563 105.448C55.4996 104.321 54.9753 103.331 56.4177 102.779C57.6796 102.295 57.8595 103.186 59.3449 101.584C61.0999 99.6919 63.2846 102.969 65.1122 102.757C67.8073 102.442 68.4111 103.892 68.8865 105.052C69.3619 106.212 68.4852 107.241 68.4852 107.241L56.3151 109.392Z" fill="#021147"/>
<path d="M57.7849 112.122C57.7849 112.122 56.5488 110.965 56.0003 112.199C55.4513 113.433 57.0785 116.504 58.7588 115.388L57.7849 112.122Z" fill="#FC8664"/>
<path d="M58.1835 114.451C58.1163 114.463 58.0465 114.43 58.0153 114.365C57.5555 113.41 56.4419 113.186 56.4306 113.184C56.3457 113.168 56.2904 113.086 56.3065 113.001C56.3226 112.917 56.4043 112.861 56.4886 112.877C56.5407 112.887 57.7677 113.129 58.2973 114.229C58.3344 114.307 58.3022 114.401 58.2243 114.438C58.2108 114.445 58.1974 114.449 58.1835 114.451Z" fill="#FD664D"/>
<path d="M57.0425 114.131C57.014 114.135 56.9839 114.133 56.9549 114.121C56.8754 114.088 56.8378 113.996 56.8711 113.916C56.8765 113.903 57.0113 113.589 57.3664 113.348C57.4373 113.3 57.5351 113.319 57.5834 113.39C57.6318 113.462 57.6135 113.559 57.5415 113.607C57.267 113.793 57.1601 114.035 57.1596 114.037C57.1381 114.088 57.0929 114.122 57.0425 114.131Z" fill="#FD664D"/>
<path d="M66.1167 116.936L66.6894 120.175C66.6894 120.175 65.6102 121.837 64.3236 122.18C63.0386 122.525 61.9707 121.115 61.9707 121.115L61.42 118.001L66.1167 116.936Z" fill="#FAB083"/>
<path d="M66.1167 116.936L66.3708 118.373C65.6666 119.5 64.1528 120.019 61.7891 120.086L61.4206 118.001L66.1167 116.936Z" fill="#FC8664"/>
<path d="M68.0608 108.014C68.2231 109.284 68.3815 110.878 68.3638 112.18C68.3595 112.504 68.3439 112.811 68.3149 113.09C68.0549 115.597 67.074 119.991 61.9997 119.13C59.7585 118.75 58.3666 116.574 57.5093 114.264C56.9275 112.694 56.5928 111.064 56.4075 109.889C56.2189 108.689 56.6782 107.482 57.6146 106.708C60.1496 104.613 63.2277 104.683 65.3179 105.09C66.7683 105.371 67.8739 106.551 68.0608 108.014Z" fill="#FAB083"/>
<path d="M60.2592 112.12C60.3204 112.466 60.1915 112.778 59.9718 112.817C59.7521 112.855 59.5243 112.607 59.463 112.261C59.4018 111.916 59.5307 111.604 59.7504 111.565C59.9702 111.526 60.1979 111.774 60.2592 112.12Z" fill="#021147"/>
<path d="M64.9199 111.296C64.9811 111.642 64.8522 111.954 64.6325 111.993C64.4128 112.031 64.185 111.783 64.1238 111.437C64.0625 111.091 64.1914 110.78 64.4112 110.741C64.6309 110.702 64.8586 110.951 64.9199 111.296Z" fill="#021147"/>
<path d="M58.227 110.497C58.227 110.497 59.7682 109.549 61.1412 109.875L61.1396 110.486C61.1396 110.486 59.7037 110.422 58.4402 111.165C58.3065 110.907 58.1684 110.797 58.227 110.497Z" fill="#021147"/>
<path d="M65.8078 109.157C65.8078 109.157 64.0356 108.795 62.857 109.571L63.0681 110.145C63.0681 110.145 64.395 109.592 65.8368 109.857C65.8733 109.57 65.9652 109.419 65.8078 109.157Z" fill="#021147"/>
<path d="M62.8995 114.194C63.159 114.148 63.3986 114.002 63.4356 113.978C63.5081 113.932 63.5302 113.836 63.484 113.763C63.4383 113.69 63.3416 113.668 63.2686 113.714C63.1396 113.795 62.8216 113.942 62.6615 113.881C62.6304 113.87 62.5869 113.843 62.5605 113.751C62.4101 113.224 62.2388 111.397 62.2371 111.379C62.2291 111.293 62.1528 111.23 62.0674 111.238C61.9809 111.245 61.9181 111.322 61.9261 111.408C61.9331 111.484 62.1018 113.282 62.2602 113.837C62.3199 114.046 62.451 114.135 62.5503 114.174C62.6599 114.215 62.7819 114.215 62.8995 114.194Z" fill="#FC8664"/>
<path d="M61.1305 115.477C61.3679 116.088 61.9916 117.178 63.4001 116.929C64.8113 116.68 65.0192 115.546 65.0257 114.789L61.1305 115.477Z" fill="white"/>
<path d="M63.5226 117.736C63.9207 117.665 64.2226 117.404 64.2354 117.393C64.3004 117.336 64.3069 117.237 64.25 117.173C64.193 117.108 64.0942 117.101 64.0297 117.158C64.0276 117.16 63.7788 117.374 63.4683 117.428C63.1836 117.479 62.8823 117.363 62.879 117.362C62.799 117.331 62.7082 117.369 62.676 117.45C62.6443 117.53 62.683 117.621 62.7635 117.653C62.7791 117.659 63.1466 117.802 63.5226 117.736Z" fill="#FC8664"/>
<path d="M57.8085 113.176C57.5802 112.562 57.3202 111.763 57.3299 111.329C57.3487 110.559 57.8864 110.014 57.5544 109.333C57.2224 108.651 57.8434 107.747 58.379 107.52C58.913 107.293 60.2651 107.34 61.4394 106.505C62.5605 105.706 64.7619 105.747 65.2481 106.471C65.8358 107.348 65.2809 107.539 66.6077 108.365C67.1363 108.694 66.7834 109.855 66.8285 110.561C66.85 110.886 66.8726 111.042 66.9456 111.382L66.9811 111.555L68.3515 111.313C68.3128 110.212 68.1898 109.013 68.0619 108.014C67.875 106.551 66.7683 105.372 65.3179 105.09C63.2272 104.683 60.1501 104.612 57.614 106.708C56.6788 107.482 56.2189 108.689 56.408 109.888C56.5547 110.82 56.7959 112.039 57.18 113.288L57.8085 113.176Z" fill="#021147"/>
<path d="M67.8486 112.012C67.781 111.654 67.7428 111.291 67.7434 110.927C67.7434 110.429 67.8062 109.967 68.2644 109.678C68.6335 109.446 69.0573 109.368 69.4382 109.763C70.3767 110.734 70.1548 114.312 68.1935 113.839L67.8486 112.012Z" fill="#FAB083"/>
<path d="M68.3692 112.777C68.4326 112.752 68.475 112.687 68.468 112.616C68.3638 111.56 69.1991 110.79 69.2072 110.783C69.2711 110.725 69.2759 110.626 69.2185 110.562C69.161 110.498 69.0621 110.493 68.9982 110.551C68.959 110.586 68.0372 111.431 68.157 112.647C68.1656 112.733 68.2419 112.795 68.3278 112.787C68.3423 112.785 68.3563 112.782 68.3692 112.777Z" fill="#FC8664"/>
<path d="M69.1771 111.909C69.2039 111.899 69.2287 111.881 69.2469 111.856C69.2974 111.786 69.2818 111.688 69.212 111.637C69.2002 111.629 68.9224 111.431 68.4938 111.41C68.4078 111.406 68.3342 111.473 68.3305 111.558C68.3262 111.644 68.3928 111.718 68.4787 111.722C68.8102 111.738 69.0267 111.889 69.0288 111.89C69.0729 111.923 69.1293 111.928 69.1771 111.909Z" fill="#FC8664"/>
<path d="M72.8016 161.64C72.7006 162.098 72.5244 162.566 72.2547 163.032C71.443 164.434 69.7788 165.832 66.6889 166.956C60.2839 169.282 48.0364 168.19 48.0364 168.19C48.1847 172.967 36.7983 189.063 36.7983 189.063L36.2391 188.702L35.7127 188.361L33.5177 186.942C33.5177 186.942 41.0389 159.905 46.153 159.131C64.2457 156.393 72.4121 158.285 72.4121 158.285C72.8043 159.188 73.0831 160.377 72.8016 161.64Z" fill="#3B3E7D"/>
<path d="M72.8017 161.64C72.7007 162.098 72.5245 162.566 72.2548 163.032C69.6183 165.165 64.9248 166.402 58.2679 166.718C53.3515 166.949 48.8761 166.578 47.6932 166.466C46.5243 174.693 38.0243 186.333 36.2392 188.702C36.07 188.927 35.962 189.066 35.9249 189.115C35.8642 189.195 35.7713 189.237 35.6784 189.237C35.6117 189.237 35.5441 189.215 35.4871 189.17C35.3512 189.066 35.3265 188.87 35.4318 188.734C35.4415 188.722 35.5414 188.593 35.7127 188.362C37.4038 186.107 46.1434 174.109 47.1141 166.089C47.1335 165.919 47.2871 165.798 47.4563 165.816C47.6572 165.838 67.462 167.91 72.8017 161.64Z" fill="#18285D"/>
<path d="M33.9415 186.941L31.2647 190.074L34.4615 191.988L36.7983 189.063L33.9415 186.941Z" fill="#FAB083"/>
<path d="M37.5956 188.999C37.2018 189.919 36.9273 190.216 36.3042 190.67C36.3042 190.67 34.2902 189.747 32.2209 187.942L33.5172 186.191C33.5172 186.191 35.0487 187.172 37.5956 188.999Z" fill="#58619B"/>
<path d="M32.1726 190.289C32.1726 190.289 32.0082 188.877 31.4001 188.582C30.792 188.287 24.22 189.264 22.5063 188.667C20.7927 188.071 20.0277 189.725 20.6729 190.098C22.5321 191.173 32.8145 197.019 32.8145 197.019C32.8145 197.019 35.2131 193.631 35.4532 192.309C35.6944 190.988 33.2292 191.245 32.1726 190.289Z" fill="black"/>
<path d="M28.2397 191.349C28.2849 191.396 28.3488 191.426 28.4197 191.427C28.5578 191.427 28.6695 191.317 28.6711 191.179C28.6716 191.133 28.6732 190.042 28.2236 189.356C27.6263 188.442 26.6926 188.539 26.6534 188.544C26.5164 188.559 26.4181 188.684 26.4342 188.82C26.4498 188.957 26.5739 189.056 26.7109 189.04C26.7361 189.037 27.3802 188.98 27.8062 189.63C28.1726 190.189 28.172 191.166 28.172 191.176C28.1715 191.243 28.1973 191.303 28.2397 191.349Z" fill="white"/>
<path d="M29.2357 191.112C29.2808 191.16 29.3448 191.19 29.4157 191.191C29.5537 191.191 29.666 191.08 29.6671 190.942C29.6676 190.896 29.6692 189.806 29.2201 189.12C28.6222 188.205 27.6891 188.303 27.6499 188.307C27.5129 188.323 27.4146 188.447 27.4307 188.584C27.4463 188.721 27.5699 188.819 27.7074 188.803C27.7326 188.801 28.3767 188.744 28.8027 189.393C29.1707 189.955 29.168 190.93 29.168 190.939C29.1675 191.006 29.1933 191.067 29.2357 191.112Z" fill="white"/>
<path d="M27.081 191.338C27.1262 191.386 27.1901 191.416 27.261 191.416C27.3991 191.417 27.5113 191.306 27.5124 191.168C27.5124 191.122 27.5146 190.031 27.0649 189.345C26.4676 188.431 25.5345 188.528 25.4947 188.533C25.3577 188.548 25.2594 188.672 25.2755 188.809C25.2911 188.946 25.4152 189.045 25.5522 189.028C25.5774 189.026 26.2221 188.969 26.6475 189.619C27.015 190.18 27.0134 191.155 27.0128 191.165C27.0128 191.231 27.0386 191.293 27.081 191.338Z" fill="white"/>
<path d="M180.068 185.412L179.32 188.832C179.32 188.832 181.37 190.352 182.817 189.529L183.57 186.19L180.068 185.412Z" fill="#FAB083"/>
<path d="M180.019 188.627C180.019 188.627 179.446 187.463 178.832 187.395C178.219 187.328 172.866 190.178 171.21 190.19C169.553 190.202 169.294 192.214 169.887 192.549C170.563 192.93 182.489 194.724 182.489 194.724C182.489 194.724 183.657 190.571 183.46 189.361C183.262 188.151 181.221 189.126 180.019 188.627Z" fill="black"/>
<path d="M176.961 190.741C177.014 190.769 177.078 190.775 177.14 190.754C177.258 190.712 177.321 190.582 177.28 190.464C177.266 190.424 176.934 189.485 176.338 189.033C175.545 188.43 174.771 188.799 174.738 188.814C174.626 188.87 174.579 189.006 174.634 189.119C174.69 189.232 174.826 189.279 174.939 189.223C174.96 189.213 175.497 188.968 176.062 189.396C176.548 189.764 176.846 190.605 176.85 190.614C176.869 190.671 176.911 190.716 176.961 190.741Z" fill="white"/>
<path d="M177.745 190.234C177.798 190.261 177.863 190.268 177.924 190.246C178.043 190.205 178.106 190.075 178.064 189.956C178.05 189.916 177.718 188.978 177.122 188.525C176.328 187.922 175.555 188.291 175.523 188.307C175.41 188.362 175.363 188.499 175.418 188.612C175.474 188.725 175.61 188.771 175.724 188.716C175.745 188.706 176.281 188.46 176.846 188.889C177.335 189.259 177.631 190.098 177.634 190.106C177.654 190.163 177.695 190.207 177.745 190.234Z" fill="white"/>
<path d="M175.961 191.086C176.014 191.114 176.079 191.12 176.14 191.099C176.259 191.057 176.322 190.927 176.28 190.809C176.266 190.769 175.934 189.83 175.338 189.378C174.544 188.774 173.771 189.143 173.739 189.159C173.626 189.214 173.579 189.351 173.634 189.464C173.69 189.577 173.826 189.624 173.94 189.568C173.961 189.559 174.498 189.312 175.062 189.741C175.55 190.111 175.847 190.95 175.85 190.958C175.87 191.016 175.911 191.061 175.961 191.086Z" fill="white"/>
<path d="M196.984 133.166C196.678 134.483 196.372 135.839 196.061 137.229C194.228 145.444 192.245 154.889 189.329 164.343C188.264 172.821 186.407 178.207 183.909 186.742C183.661 186.791 183.301 186.801 182.883 186.776C182.728 186.766 182.563 186.752 182.392 186.728C181.352 186.601 180.108 186.261 179.32 185.668C179.32 185.668 180.837 175.334 182.937 163.701C184.054 157.494 186.038 142.294 186.981 134.935C187.302 132.407 187.501 130.808 187.501 130.808L195.453 132.786L195.584 132.815L195.924 132.903L196.984 133.166Z" fill="#3B3E7D"/>
<path d="M196.984 133.166C196.678 134.483 196.372 135.839 196.061 137.229L186.981 134.935C187.301 132.408 187.501 130.808 187.501 130.808L195.453 132.787L195.584 132.816L195.924 132.903L196.984 133.166Z" fill="#18285D"/>
<path d="M195.923 132.898V132.903L188.389 164.197C188.379 164.28 186.921 174.526 182.882 186.776C182.726 186.766 182.561 186.752 182.391 186.727C186.435 174.478 187.898 164.212 187.913 164.105L195.452 132.786L195.583 132.815L195.923 132.898Z" fill="#18285D"/>
<path d="M202.53 185.123L202.834 189.615L206.115 188.829V185.123H202.53Z" fill="#FAB083"/>
<path d="M203.985 188.687C203.985 188.687 205.727 188.224 206.209 188.234C206.69 188.244 209.912 191.854 210.998 192.068C212.967 192.456 212.966 195.532 211.768 195.682C208.3 196.12 202.371 194.649 202.371 194.649C202.371 194.649 201.829 190.702 202.068 189.464C202.307 188.226 203.016 189.05 203.985 188.687Z" fill="black"/>
<path d="M206.852 192.059C206.791 192.073 206.723 192.062 206.666 192.024C206.556 191.949 206.527 191.8 206.601 191.691C206.626 191.654 207.216 190.786 207.946 190.485C208.916 190.082 209.605 190.666 209.634 190.69C209.734 190.777 209.745 190.929 209.658 191.029C209.572 191.13 209.42 191.14 209.319 191.053C209.3 191.037 208.82 190.643 208.128 190.928C207.534 191.174 207.004 191.951 206.999 191.959C206.964 192.012 206.91 192.046 206.852 192.059Z" fill="white"/>
<path d="M206.189 191.331C206.127 191.345 206.06 191.334 206.004 191.296C205.893 191.222 205.864 191.072 205.939 190.963C205.963 190.926 206.554 190.058 207.283 189.757C208.253 189.354 208.942 189.938 208.971 189.963C209.071 190.049 209.082 190.202 208.995 190.301C208.909 190.402 208.757 190.413 208.657 190.326C208.638 190.31 208.157 189.915 207.466 190.2C206.869 190.448 206.342 191.223 206.337 191.231C206.301 191.284 206.247 191.318 206.189 191.331Z" fill="white"/>
<path d="M207.778 192.679C207.717 192.692 207.65 192.681 207.593 192.643C207.483 192.569 207.454 192.42 207.528 192.309C207.553 192.273 208.143 191.405 208.872 191.103C209.843 190.701 210.532 191.284 210.561 191.309C210.661 191.396 210.672 191.548 210.585 191.648C210.498 191.749 210.346 191.759 210.246 191.672C210.228 191.657 209.746 191.262 209.055 191.547C208.459 191.794 207.932 192.57 207.926 192.578C207.891 192.632 207.837 192.666 207.778 192.679Z" fill="white"/>
<path d="M206.563 185.609C205.795 185.939 204.687 186.037 203.618 186.017C203.452 186.017 203.287 186.012 203.127 185.998C202.733 185.983 202.354 185.95 202.009 185.91L197.308 137.171L196.924 133.166L197.828 133.097L198.314 133.063L206.379 132.475C206.379 132.475 206.374 133.457 206.374 135.056C206.369 140.549 206.398 153.343 206.709 158.87C207.107 166.01 206.563 185.609 206.563 185.609Z" fill="#3B3E7D"/>
<path d="M206.378 132.475C206.378 132.475 206.373 133.457 206.373 135.056L197.307 137.171L196.923 133.166L197.827 133.097L198.314 133.063L206.378 132.475Z" fill="#18285D"/>
<path d="M203.616 186.017C203.45 186.017 203.285 186.013 203.125 185.998L197.826 133.097L198.313 133.063L203.616 186.017Z" fill="#18285D"/>
<path d="M204.421 104.682L206.589 111.647L208.962 118.267C209.344 119.653 210.874 120.366 212.181 119.77C212.204 119.759 212.227 119.749 212.25 119.739C214.508 118.671 213.263 114.242 213.263 114.242L212.837 114.209C212.663 113.723 212.194 112.486 211.597 110.932C211.525 110.741 211.45 110.544 211.373 110.346C211.247 110.015 211.115 109.675 210.981 109.324C210.791 108.83 210.594 108.32 210.395 107.807C208.931 104.01 207.719 99.8912 207.719 99.8912L206.708 96.8915L204.421 104.682Z" fill="#FAB083"/>
<path d="M210.834 115.763C210.834 115.763 211.145 110.717 212.221 109.644C213.298 108.572 214.28 108.162 215.29 108.199C216.3 108.235 217.249 108.361 217.187 108.776C217.187 108.776 219.506 108.426 220.542 109.026C221.577 109.627 217.475 110.153 216.257 110.185C215.039 110.217 214.396 110.897 214.347 111.623C214.297 112.349 213.595 117.157 213.595 117.157L210.834 115.763Z" fill="#FAB083"/>
<path d="M204.756 106.534C204.756 106.534 208.588 118.767 209.465 119.598C210.342 120.429 212.313 121.28 213.388 119.042C214.464 116.803 214.679 110.826 214.679 110.826L212.004 109.581L211.585 110.899L206.75 96.8609C206.75 96.8609 205.033 105.611 204.756 106.534Z" fill="#9400D3" fill-opacity="0.87"/>
<path d="M210.51 115.66C210.52 115.661 210.528 115.661 210.538 115.662C210.624 115.662 210.701 115.6 210.714 115.512C211.044 113.412 211.365 111.828 211.585 110.898C211.513 110.708 211.463 110.522 211.387 110.323C211.181 111.143 210.762 112.911 210.361 115.456C210.347 115.553 210.413 115.644 210.51 115.66Z" fill="#4F60D9"/>
<path d="M209.605 109.102L224.976 109.205C225.554 109.209 226.026 108.744 226.03 108.166V108.156C226.034 107.578 225.569 107.107 224.991 107.103L209.619 107C209.041 106.996 208.57 107.461 208.566 108.039V108.049C208.561 108.627 209.027 109.099 209.605 109.102Z" fill="#C0CFFF"/>
<path d="M226.019 109.213L229.384 96.941C229.573 96.2518 229.057 95.5706 228.342 95.5658L221.119 95.5174C220.631 95.5142 220.201 95.8354 220.066 96.3039L216.366 109.148L226.019 109.213Z" fill="#C0CFFF"/>
<path d="M220.066 96.3033L216.396 109.042L215.571 109.036L219.241 96.2979C219.377 95.8295 219.806 95.5077 220.294 95.5109L221.119 95.5163C220.631 95.5131 220.202 95.8349 220.066 96.3033Z" fill="#C0CFFF"/>
<path d="M221.879 102.904C221.687 103.713 222.187 104.374 222.998 104.379C223.808 104.385 224.623 103.733 224.816 102.923C225.009 102.114 224.508 101.453 223.697 101.447C222.887 101.442 222.073 102.094 221.879 102.904Z" fill="#58619B"/>
<path d="M163.876 92.0498C163.574 92.0853 163.284 92.0525 163.038 91.923C162.388 91.583 161.848 91.2451 161.536 91.0399C161.35 90.9131 161.244 90.8395 161.244 90.8395C161.244 90.8395 161.237 90.8395 161.231 90.8449C161.16 90.8573 160.81 90.9083 160.221 90.5731C159.559 90.1922 159.213 89.5503 159.297 89.1973C159.378 88.8444 159.838 88.7531 159.838 88.7531C159.838 88.7531 159.607 88.4179 159.721 88.0526C159.836 87.6846 160.569 87.4966 160.569 87.4966C160.569 87.4966 160.363 87.0346 160.731 86.7327C161.081 86.441 161.86 86.9943 161.929 87.0373C161.825 86.9282 159.49 84.4818 160.183 84.4663C160.891 84.4512 163.35 86.7021 163.466 86.7531C163.581 86.8063 164.18 86.7655 164.761 86.8444C165.342 86.9207 165.629 87.1872 165.89 88.0649C166.152 88.9432 166.069 90.3604 166.069 90.3604C166.249 90.4946 166.597 90.8084 166.805 90.9604C166.805 90.9604 166.933 91.0297 166.946 91.0372C167.383 91.2886 174.232 95.1177 176.428 96.8308C176.431 96.8308 176.431 96.8335 176.433 96.8335C176.511 96.8942 176.636 96.9453 176.801 96.9909C179.057 97.6023 188.78 96.869 188.78 96.869L189.282 102.186C189.282 102.186 179.519 102.765 174.864 100.447C171.192 98.6202 165.307 93.1183 165.307 93.1183L163.876 92.0498Z" fill="#FAB083"/>
<path d="M164.672 89.1861C164.698 89.1925 164.725 89.1936 164.751 89.1871C164.838 89.1667 164.892 89.0792 164.871 88.9927L164.697 88.2583C164.686 88.2143 164.657 88.1767 164.618 88.1546C164.578 88.1326 164.532 88.1283 164.489 88.1423C164.481 88.145 163.649 88.4125 163.042 88.0757C162.856 87.9725 162.744 87.8538 162.719 87.7324C162.69 87.5954 162.776 87.4799 162.777 87.4789C162.83 87.4085 162.818 87.307 162.748 87.2532C162.678 87.199 162.578 87.2103 162.523 87.2796C162.504 87.3027 162.346 87.5127 162.402 87.7926C162.446 88.0139 162.609 88.2041 162.885 88.3582C163.441 88.6671 164.113 88.5672 164.422 88.4952L164.558 89.0679C164.571 89.127 164.617 89.171 164.672 89.1861Z" fill="#FC8664"/>
<path d="M161.23 90.8433C161.239 90.8401 161.244 90.839 161.244 90.839C161.244 90.839 161.349 90.9142 161.537 91.0378C161.897 90.7885 162.02 90.4082 162.125 90.0886C162.215 89.8108 162.294 89.5702 162.49 89.4321C162.693 89.2903 162.809 89.1044 162.873 88.9137C162.936 88.7311 162.949 88.543 162.942 88.3862C162.939 88.3276 162.935 88.2728 162.929 88.2256C162.913 88.1009 162.889 88.0177 162.887 88.0069C162.862 87.921 162.773 87.8705 162.687 87.8957C162.602 87.9194 162.552 88.0085 162.576 88.0945C162.576 88.0961 162.58 88.109 162.584 88.1326C162.606 88.2299 162.65 88.4969 162.582 88.7536C162.54 88.9083 162.457 89.0604 162.303 89.1683C162.019 89.3676 161.916 89.683 161.816 89.9886C161.704 90.3346 161.596 90.665 161.23 90.8433Z" fill="#FC8664"/>
<path d="M163.709 90.2669C163.768 90.2825 163.833 90.2642 163.875 90.2153C163.932 90.1471 163.924 90.0456 163.855 89.9881C163.847 89.9811 163.042 89.2854 163.186 88.3792C163.199 88.2911 163.139 88.2084 163.051 88.1944C162.963 88.1804 162.88 88.2406 162.866 88.3287C162.695 89.417 163.608 90.2019 163.647 90.2347C163.666 90.2502 163.687 90.261 163.709 90.2669Z" fill="#FC8664"/>
<path d="M207.193 132.624C203.353 133.513 200.249 133.967 197.183 133.994C197.164 133.994 197.145 133.997 197.127 133.994C197.108 133.997 197.09 133.994 197.07 133.994C194.004 133.967 190.902 133.513 187.059 132.624C186.522 125.738 188.875 121.378 188.613 113.659C188.611 113.592 188.608 113.525 188.606 113.458C188.594 113.124 188.579 112.794 188.563 112.465C188.532 111.839 188.495 111.22 188.452 110.61C188.43 110.276 188.405 109.945 188.379 109.617C187.849 102.948 186.792 97.6641 187.366 96.941C187.988 96.1556 189.57 95.229 191.179 94.3689C192.704 93.5551 194.252 92.8003 195.028 92.2841C195.797 92.6193 196.41 92.8025 197.07 92.7998C197.088 92.7998 197.108 92.7998 197.127 92.7976C197.145 92.7998 197.165 92.7998 197.183 92.7998C197.843 92.803 198.456 92.6198 199.226 92.2841C199.946 92.7627 201.302 93.4304 202.684 94.1589C204.365 95.0447 206.086 96.0202 206.75 96.8599C207.348 97.6141 206.277 103.392 205.802 110.483C205.781 110.802 205.761 111.122 205.742 111.446C205.701 112.145 205.667 112.854 205.643 113.571C205.642 113.6 205.64 113.629 205.64 113.658C205.63 113.942 205.624 114.22 205.621 114.495C205.546 121.702 207.711 125.99 207.193 132.624Z" fill="#9400D3" fill-opacity="0.87"/>
<path d="M203.343 123.918H203.342C199.47 123.901 196.166 122.14 194.076 120.664C191.815 119.07 190.445 117.453 190.431 117.437C190.365 117.359 190.376 117.241 190.454 117.174C190.533 117.108 190.65 117.118 190.716 117.197C190.73 117.213 192.075 118.798 194.299 120.366C196.344 121.807 199.573 123.529 203.343 123.545C203.446 123.546 203.529 123.63 203.528 123.732C203.529 123.836 203.446 123.918 203.343 123.918Z" fill="#4F60D9"/>
<path d="M199.309 125.234C195.949 125.234 192.599 123.319 192.447 123.231C192.358 123.18 192.328 123.066 192.379 122.977C192.431 122.887 192.545 122.857 192.634 122.908C192.673 122.931 196.615 125.182 200.11 124.821C200.214 124.809 200.304 124.885 200.315 124.987C200.326 125.089 200.251 125.181 200.149 125.191C199.869 125.22 199.589 125.234 199.309 125.234Z" fill="#4F60D9"/>
<path d="M196.334 101.699C196.247 101.699 196.168 101.637 196.151 101.547C196.132 101.446 196.199 101.349 196.3 101.33C201.02 100.434 202.443 97.3981 202.456 97.3675C202.498 97.274 202.609 97.2321 202.703 97.2746C202.796 97.317 202.838 97.4271 202.795 97.5211C202.736 97.6533 201.277 100.765 196.369 101.696C196.357 101.698 196.345 101.699 196.334 101.699Z" fill="#4F60D9"/>
<path d="M197.518 95.8816C194.807 96.161 193.814 92.8793 193.804 92.8454C193.783 92.774 193.824 92.6998 193.895 92.6789C193.967 92.6585 194.041 92.6987 194.062 92.7702C194.1 92.9018 195.041 95.9982 197.647 95.5942C199.928 95.2424 199.801 92.6832 199.795 92.5747C199.79 92.5005 199.846 92.4366 199.92 92.4323C199.995 92.428 200.058 92.4839 200.063 92.558C200.064 92.587 200.213 95.4701 197.688 95.8596C197.63 95.8687 197.573 95.8757 197.518 95.8816Z" fill="white"/>
<path d="M191.994 84.9357C191.994 84.9357 189.763 81.1222 191.644 78.1778C193.525 75.2335 197.521 75.5112 198.556 75.7427C199.591 75.9743 205.55 78.7682 201.946 85.5444L191.994 84.9357Z" fill="#021147"/>
<path d="M192.366 83.8565C192.366 83.8565 191.463 82.6526 190.792 83.6481C190.12 84.6435 191.07 87.5841 192.713 86.8664L192.366 83.8565Z" fill="#FC8664"/>
<path d="M192.355 85.9574C192.294 85.9574 192.238 85.9172 192.221 85.8559C191.966 84.9481 191.026 84.5801 191.016 84.5763C190.944 84.5489 190.908 84.4689 190.935 84.3974C190.963 84.326 191.043 84.2895 191.114 84.3169C191.158 84.3335 192.194 84.7359 192.488 85.7812C192.509 85.8548 192.465 85.9317 192.392 85.9526C192.38 85.9558 192.367 85.9574 192.355 85.9574Z" fill="#FD664D"/>
<path d="M191.405 85.5003C191.38 85.5003 191.354 85.4933 191.33 85.4783C191.266 85.4369 191.247 85.351 191.289 85.286C191.296 85.2752 191.462 85.0217 191.81 84.8659C191.88 84.8342 191.962 84.8659 191.994 84.9357C192.025 85.0056 191.994 85.0878 191.924 85.1194C191.655 85.2398 191.524 85.4348 191.523 85.4364C191.496 85.4778 191.451 85.5003 191.405 85.5003Z" fill="#FD664D"/>
<path d="M201.672 83.8565C201.672 83.8565 202.575 82.6526 203.246 83.6481C203.918 84.6435 202.968 87.5841 201.325 86.8664L201.672 83.8565Z" fill="#FC8664"/>
<path d="M201.683 85.9574C201.744 85.9574 201.8 85.9172 201.817 85.8559C202.072 84.9481 203.012 84.5801 203.022 84.5763C203.094 84.5489 203.13 84.4689 203.103 84.3974C203.075 84.326 202.995 84.2895 202.924 84.3169C202.88 84.3335 201.844 84.7359 201.55 85.7812C201.529 85.8548 201.573 85.9317 201.646 85.9526C201.658 85.9558 201.671 85.9574 201.683 85.9574Z" fill="#FD664D"/>
<path d="M202.633 85.5003C202.658 85.5003 202.685 85.4933 202.708 85.4783C202.772 85.4369 202.791 85.351 202.749 85.286C202.742 85.2752 202.576 85.0217 202.228 84.8659C202.158 84.8342 202.076 84.8659 202.044 84.9357C202.013 85.0056 202.044 85.0878 202.114 85.1194C202.383 85.2398 202.514 85.4348 202.515 85.4364C202.542 85.4778 202.587 85.5003 202.633 85.5003Z" fill="#FD664D"/>
<path d="M199.242 89.3601V92.284C199.242 92.284 198.37 93.7731 197.19 93.8747C196.012 93.9773 194.965 92.5924 194.965 92.5924V89.5653L199.242 89.3601Z" fill="#FAB083"/>
<path d="M199.242 89.3601V90.6574C198.451 91.5357 197.045 91.7549 194.965 91.4476V89.5653L199.242 89.3601Z" fill="#FC8664"/>
<path d="M202.325 81.8507C202.271 82.9868 202.162 84.4082 201.946 85.5444C201.891 85.828 201.83 86.0945 201.762 86.3335C201.147 88.4882 199.608 92.1836 195.298 90.644C193.395 89.965 192.513 87.8447 192.12 85.6889C191.853 84.2245 191.813 82.7451 191.832 81.6884C191.853 80.6092 192.442 79.6229 193.381 79.0906C195.925 77.6487 198.609 78.1865 200.375 78.8655C201.602 79.3361 202.387 80.5404 202.325 81.8507Z" fill="#FAB083"/>
<path d="M195.858 77.6874C195.858 77.6874 201.544 86.8079 202.328 83.4628C203.439 78.7221 200.042 75.789 195.858 77.6874Z" fill="#021147"/>
<path d="M195.621 77.6869C191.837 77.7148 189.955 82.0145 191.71 82.5238C194.152 83.2323 196.27 79.7755 196.921 78.5765C196.483 78.2869 196.044 77.9985 195.621 77.6869Z" fill="#021147"/>
<path d="M202.515 75.6418C202.515 77.7083 200.84 79.3838 198.773 79.3838C196.706 79.3838 195.031 77.7083 195.031 75.6418C195.031 73.5752 196.706 71.8997 198.773 71.8997C200.84 71.8991 202.515 73.5746 202.515 75.6418Z" fill="#021147"/>
<path d="M192.494 82.1149C192.494 82.1149 192.788 83.2586 192.386 84.0279C191.984 84.7971 192.205 86.1154 192.386 87.597C192.386 87.597 191.748 86.694 191.711 85.2473C191.673 83.8001 191.91 82.5963 191.711 82.0177L192.494 82.1149Z" fill="#021147"/>
<path d="M201.428 82.1149C201.428 82.1149 201.134 83.2586 201.536 84.0279C201.938 84.7971 201.717 86.1154 201.536 87.597C201.536 87.597 202.174 86.694 202.212 85.2473C202.249 83.8001 202.012 82.5963 202.212 82.0177L201.428 82.1149Z" fill="#021147"/>
<path d="M195.121 84.0279C195.121 84.34 194.96 84.593 194.762 84.593C194.564 84.593 194.402 84.34 194.402 84.0279C194.402 83.7158 194.564 83.4628 194.762 83.4628C194.96 83.4628 195.121 83.7158 195.121 84.0279Z" fill="#021147"/>
<path d="M199.559 84.0279C199.559 84.34 199.398 84.593 199.199 84.593C199.001 84.593 198.84 84.34 198.84 84.0279C198.84 83.7158 199.001 83.4628 199.199 83.4628C199.398 83.4628 199.559 83.7158 199.559 84.0279Z" fill="#021147"/>
<path d="M194.05 82.3454C194.349 82.2611 194.951 82.1171 195.587 82.115C195.755 82.1145 195.883 82.2633 195.853 82.4282L195.852 82.4325C195.829 82.5641 195.711 82.657 195.578 82.6506C195.145 82.6302 194.009 82.6914 193.473 82.9084C193.462 82.815 193.517 82.7129 193.595 82.6226C193.714 82.4851 193.876 82.3943 194.05 82.3454Z" fill="#021147"/>
<path d="M199.856 82.3567C199.557 82.2723 198.955 82.1284 198.319 82.1262C198.151 82.1257 198.024 82.2745 198.053 82.4394L198.054 82.4437C198.077 82.5753 198.195 82.6683 198.328 82.6618C198.761 82.6414 199.897 82.7026 200.433 82.9197C200.444 82.8262 200.389 82.7241 200.31 82.6339C200.193 82.4969 200.031 82.4061 199.856 82.3567Z" fill="#021147"/>
<path d="M197.067 86.6064C196.961 86.6064 196.854 86.5877 196.765 86.5345C196.684 86.4856 196.583 86.3873 196.564 86.195C196.511 85.6846 196.641 84.0838 196.647 84.0161C196.653 83.9398 196.72 83.8829 196.797 83.8888C196.873 83.8952 196.93 83.9624 196.923 84.0387C196.922 84.0548 196.789 85.6814 196.84 86.166C196.848 86.2503 196.883 86.2804 196.908 86.2954C197.038 86.3733 197.34 86.2938 197.465 86.2428C197.536 86.2138 197.617 86.2481 197.646 86.3191C197.675 86.39 197.641 86.4711 197.57 86.5001C197.534 86.5157 197.302 86.6064 197.067 86.6064Z" fill="#FC8664"/>
<path d="M195.303 87.4836C195.408 88.0122 195.757 88.984 196.933 88.984C198.112 88.984 198.443 88.0955 198.556 87.4836H195.303Z" fill="white"/>
<path d="M196.916 89.7952C196.577 89.7952 196.277 89.6125 196.265 89.6045C196.2 89.5642 196.179 89.4788 196.22 89.4132C196.26 89.3482 196.345 89.3278 196.41 89.3681C196.413 89.3697 196.657 89.5174 196.916 89.5174C197.196 89.5174 197.447 89.3692 197.449 89.3676C197.515 89.3278 197.6 89.3493 197.64 89.4148C197.679 89.4804 197.659 89.5652 197.593 89.605C197.581 89.6131 197.276 89.7952 196.916 89.7952Z" fill="#FC8664"/>
<path d="M166.81 90.8062L164.876 93.3584C164.876 93.3584 172.164 99.6027 175.764 100.837C179.365 102.072 187.718 103.216 187.718 103.216C188.325 101.127 188.042 99.0343 187.367 96.9409C187.367 96.9409 178.767 97.1445 176.297 95.8982C171.003 93.2278 166.81 90.8062 166.81 90.8062Z" fill="#9400D3" fill-opacity="0.87"/>
<path d="M164.196 28.6588C164.148 28.6636 164.098 28.6571 164.05 28.6373C163.544 28.4235 163.247 28.3235 163.243 28.323C163.088 28.2709 163.004 28.1033 163.056 27.9481C163.108 27.7928 163.276 27.709 163.431 27.7606C163.444 27.7649 163.75 27.8675 164.28 28.0915C164.431 28.1549 164.502 28.3289 164.438 28.4799C164.395 28.5819 164.301 28.6475 164.196 28.6588Z" fill="#DBE6F7"/>
<path d="M179.304 44.5581C179.505 45.0958 179.695 45.6507 179.865 46.2067C179.908 46.3448 180.042 46.4291 180.18 46.4146C180.198 46.4124 180.217 46.4087 180.236 46.4033C180.392 46.355 180.48 46.1895 180.432 46.0332C180.258 45.4654 180.065 44.8997 179.859 44.3507C179.801 44.1976 179.631 44.1197 179.478 44.1772C179.324 44.2341 179.247 44.405 179.304 44.5581Z" fill="#DBE6F7"/>
<path d="M180.327 47.8865C180.463 48.4436 180.586 49.0168 180.692 49.591C180.72 49.7441 180.861 49.8478 181.014 49.8317C181.021 49.8312 181.029 49.8295 181.037 49.8285C181.198 49.7984 181.305 49.6437 181.274 49.4831C181.166 48.8981 181.041 48.3141 180.903 47.7463C180.864 47.5873 180.703 47.4901 180.544 47.5287C180.386 47.5669 180.288 47.7275 180.327 47.8865Z" fill="#DBE6F7"/>
<path d="M181.218 50.9802C181.056 51.0017 180.941 51.15 180.962 51.3122C180.997 51.5803 181.029 51.851 181.057 52.1169C181.09 52.4237 181.118 52.7374 181.142 53.0479C181.155 53.2112 181.298 53.3331 181.461 53.3202C181.464 53.3197 181.466 53.3197 181.469 53.3192C181.628 53.3025 181.746 53.1618 181.733 53.0011C181.708 52.6853 181.679 52.3662 181.646 52.0541C181.618 51.7833 181.585 51.5077 181.55 51.2348C181.529 51.0748 181.385 50.9614 181.225 50.9781C181.223 50.9802 181.221 50.9802 181.218 50.9802Z" fill="#DBE6F7"/>
<path d="M178.643 42.9475C178.696 43.0673 178.82 43.1345 178.945 43.1216C178.975 43.1184 179.005 43.1103 179.034 43.0974C179.184 43.0308 179.251 42.8551 179.184 42.7058C178.942 42.1659 178.681 41.6277 178.407 41.106C178.331 40.961 178.152 40.9057 178.006 40.9814C177.862 41.0577 177.806 41.2371 177.882 41.3816C178.15 41.8925 178.406 42.4195 178.643 42.9475Z" fill="#DBE6F7"/>
<path d="M165.625 29.3732C166.134 29.6332 166.648 29.9163 167.152 30.215C167.209 30.2489 167.272 30.2612 167.334 30.2548C167.424 30.2451 167.508 30.1946 167.558 30.1108C167.641 29.97 167.594 29.7879 167.454 29.7047C166.939 29.4001 166.414 29.1105 165.894 28.8452C165.748 28.771 165.57 28.8285 165.495 28.9741C165.421 29.1202 165.479 29.2991 165.625 29.3732Z" fill="#DBE6F7"/>
<path d="M170.043 32.165C170.106 32.2128 170.181 32.2317 170.254 32.2241C170.332 32.2161 170.407 32.1769 170.458 32.1092C170.557 31.9792 170.533 31.7933 170.403 31.6939C169.933 31.3356 169.447 30.9864 168.958 30.6566C168.822 30.5653 168.638 30.6007 168.546 30.7366C168.454 30.8726 168.49 31.0568 168.626 31.1481C169.106 31.471 169.582 31.8137 170.043 32.165Z" fill="#DBE6F7"/>
<path d="M175.024 37.018C175.089 37.0997 175.189 37.1378 175.286 37.1276C175.341 37.1217 175.394 37.1007 175.44 37.0642C175.568 36.9622 175.589 36.7752 175.486 36.6474C175.118 36.1875 174.729 35.732 174.331 35.2942C174.221 35.1733 174.034 35.1642 173.912 35.2743C173.791 35.3844 173.782 35.5719 173.892 35.6928C174.282 36.122 174.663 36.5679 175.024 37.018Z" fill="#DBE6F7"/>
<path d="M172.682 34.4406C172.748 34.5045 172.836 34.5319 172.92 34.5228C172.987 34.5158 173.051 34.4862 173.101 34.4347C173.215 34.3176 173.213 34.1295 173.095 34.0157C172.673 33.6052 172.232 33.2013 171.783 32.8145C171.659 32.7076 171.472 32.7215 171.365 32.8456C171.258 32.9697 171.272 33.1567 171.397 33.2636C171.837 33.6428 172.269 34.0388 172.682 34.4406Z" fill="#DBE6F7"/>
<path d="M177.023 39.8679C177.085 39.9689 177.197 40.0199 177.307 40.0081C177.35 40.0038 177.392 39.9898 177.43 39.9662C177.57 39.8808 177.614 39.6981 177.529 39.5584C177.221 39.0546 176.893 38.5539 176.554 38.0704C176.46 37.9366 176.275 37.9039 176.141 37.9979C176.007 38.0919 175.974 38.2767 176.069 38.411C176.4 38.8843 176.722 39.3747 177.023 39.8679Z" fill="#DBE6F7"/>
<path d="M151.548 19.885L149.16 28.9095L162.225 32.3666L164.613 23.3421L151.548 19.885Z" fill="#9400D3" fill-opacity="0.42"/>
<path d="M158.107 26.6131L161.85 32.2628L162.228 32.3627L162.289 32.1328L158.472 26.3714L158.107 26.6131Z" fill="black"/>
<path d="M149.216 28.706L149.164 28.9059L149.576 29.0149L155.624 25.9562L155.426 25.5656L149.216 28.706Z" fill="black"/>
<path d="M164.617 23.3384L156.547 27.4195L151.552 19.881L164.617 23.3384Z" fill="#9400D3"/>
<path d="M201.942 39.5821C200.141 39.5821 198.675 38.1166 198.675 36.3154C198.675 34.5142 200.141 33.0488 201.942 33.0488C203.743 33.0488 205.209 34.5142 205.209 36.3154C205.209 38.1166 203.743 39.5821 201.942 39.5821ZM201.942 34.0737C200.706 34.0737 199.7 35.0794 199.7 36.3154C199.7 37.5515 200.706 38.5572 201.942 38.5572C203.178 38.5572 204.184 37.5515 204.184 36.3154C204.184 35.0794 203.178 34.0737 201.942 34.0737Z" fill="#9400D3" fill-opacity="0.42"/>
<path d="M218.544 42.9052C216.743 42.9052 215.277 41.4397 215.277 39.6385C215.277 37.8373 216.743 36.3718 218.544 36.3718C220.345 36.3718 221.811 37.8373 221.811 39.6385C221.81 41.4397 220.345 42.9052 218.544 42.9052ZM218.544 37.3968C217.308 37.3968 216.302 38.4024 216.302 39.6385C216.302 40.8746 217.308 41.8802 218.544 41.8802C219.78 41.8802 220.786 40.8746 220.786 39.6385C220.785 38.4024 219.78 37.3968 218.544 37.3968Z" fill="#4B0082"/>
<path d="M226.41 49.5744C226.127 49.5744 225.898 49.3451 225.898 49.062V46.8025C225.898 46.5194 226.127 46.29 226.41 46.29C226.693 46.29 226.923 46.5194 226.923 46.8025V49.062C226.923 49.3456 226.693 49.5744 226.41 49.5744Z" fill="#9400D3" fill-opacity="0.42"/>
<path d="M226.41 53.5288C226.127 53.5288 225.898 53.2994 225.898 53.0163V50.7569C225.898 50.4738 226.127 50.2444 226.41 50.2444C226.693 50.2444 226.923 50.4738 226.923 50.7569V53.0163C226.923 53.2994 226.693 53.5288 226.41 53.5288Z" fill="#9400D3" fill-opacity="0.42"/>
<path d="M229.582 50.4221H227.552C227.268 50.4221 227.039 50.1927 227.039 49.9096C227.039 49.6265 227.268 49.3972 227.552 49.3972H229.582C229.865 49.3972 230.094 49.6265 230.094 49.9096C230.094 50.1927 229.865 50.4221 229.582 50.4221Z" fill="#9400D3" fill-opacity="0.42"/>
<path d="M225.268 50.4221H223.238C222.955 50.4221 222.726 50.1927 222.726 49.9096C222.726 49.6265 222.955 49.3972 223.238 49.3972H225.268C225.552 49.3972 225.781 49.6265 225.781 49.9096C225.78 50.1927 225.551 50.4221 225.268 50.4221Z" fill="#9400D3" fill-opacity="0.42"/>
<path d="M208.964 45.8898C208.68 45.8898 208.451 45.6604 208.451 45.3773V43.1179C208.451 42.8348 208.68 42.6054 208.964 42.6054C209.247 42.6054 209.476 42.8348 209.476 43.1179V45.3773C209.476 45.6604 209.247 45.8898 208.964 45.8898Z" fill="#4B0082"/>
<path d="M208.964 49.8441C208.68 49.8441 208.451 49.6147 208.451 49.3316V47.0722C208.451 46.7891 208.68 46.5597 208.964 46.5597C209.247 46.5597 209.476 46.7891 209.476 47.0722V49.3316C209.476 49.6147 209.247 49.8441 208.964 49.8441Z" fill="#4B0082"/>
<path d="M212.135 46.7369H210.105C209.822 46.7369 209.593 46.5076 209.593 46.2245C209.593 45.9414 209.822 45.712 210.105 45.712H212.135C212.418 45.712 212.648 45.9414 212.648 46.2245C212.648 46.5081 212.418 46.7369 212.135 46.7369Z" fill="#4B0082"/>
<path d="M207.822 46.7369H205.792C205.509 46.7369 205.279 46.5076 205.279 46.2245C205.279 45.9414 205.509 45.712 205.792 45.712H207.822C208.105 45.712 208.335 45.9414 208.335 46.2245C208.334 46.5081 208.105 46.7369 207.822 46.7369Z" fill="#4B0082"/>
<path d="M10.8443 112.467C10.8443 114.269 9.37886 115.734 7.57765 115.734C5.77644 115.734 4.31097 114.269 4.31097 112.467C4.31097 110.666 5.77644 109.201 7.57765 109.201C9.37886 109.201 10.8443 110.667 10.8443 112.467ZM5.33594 112.467C5.33594 113.704 6.34157 114.709 7.57765 114.709C8.81373 114.709 9.81936 113.704 9.81936 112.467C9.81936 111.231 8.81373 110.226 7.57765 110.226C6.34157 110.226 5.33594 111.231 5.33594 112.467Z" fill="#9400D3" fill-opacity="0.42"/>
<path d="M14.1674 95.866C14.1674 97.6672 12.7019 99.1327 10.9007 99.1327C9.0995 99.1327 7.63403 97.6672 7.63403 95.866C7.63403 94.0648 9.0995 92.5994 10.9007 92.5994C12.7019 92.5994 14.1674 94.0648 14.1674 95.866ZM8.659 95.866C8.659 97.1021 9.66462 98.1078 10.9007 98.1078C12.1368 98.1078 13.1424 97.1021 13.1424 95.866C13.1424 94.63 12.1368 93.6243 10.9007 93.6243C9.66462 93.6243 8.659 94.63 8.659 95.866Z" fill="#4B0082"/>
<path d="M20.8367 87.9994C20.8367 88.2825 20.6073 88.5119 20.3242 88.5119H18.0647C17.7816 88.5119 17.5522 88.2825 17.5522 87.9994C17.5522 87.7163 17.7816 87.4869 18.0647 87.4869H20.3242C20.6073 87.4875 20.8367 87.7169 20.8367 87.9994Z" fill="#9400D3" fill-opacity="0.42"/>
<path d="M24.7909 87.9994C24.7909 88.2825 24.5616 88.5119 24.2785 88.5119H22.019C21.7359 88.5119 21.5065 88.2825 21.5065 87.9994C21.5065 87.7163 21.7359 87.4869 22.019 87.4869H24.2785C24.5616 87.4875 24.7909 87.7169 24.7909 87.9994Z" fill="#9400D3" fill-opacity="0.42"/>
<path d="M21.6843 84.8278V86.8578C21.6843 87.1409 21.4549 87.3703 21.1718 87.3703C20.8887 87.3703 20.6594 87.1409 20.6594 86.8578V84.8278C20.6594 84.5447 20.8887 84.3153 21.1718 84.3153C21.4549 84.3153 21.6843 84.5452 21.6843 84.8278Z" fill="#9400D3" fill-opacity="0.42"/>
<path d="M21.6843 89.1415V91.1715C21.6843 91.4546 21.4549 91.684 21.1718 91.684C20.8887 91.684 20.6594 91.4546 20.6594 91.1715V89.1415C20.6594 88.8584 20.8887 88.629 21.1718 88.629C21.4549 88.629 21.6843 88.8584 21.6843 89.1415Z" fill="#9400D3" fill-opacity="0.42"/>
<path d="M17.152 105.446C17.152 105.729 16.9226 105.959 16.6395 105.959H14.3801C14.097 105.959 13.8676 105.729 13.8676 105.446C13.8676 105.163 14.097 104.934 14.3801 104.934H16.6395C16.9226 104.934 17.152 105.163 17.152 105.446Z" fill="#4B0082"/>
<path d="M21.1063 105.446C21.1063 105.729 20.8769 105.959 20.5938 105.959H18.3344C18.0513 105.959 17.8219 105.729 17.8219 105.446C17.8219 105.163 18.0513 104.934 18.3344 104.934H20.5938C20.8769 104.934 21.1063 105.163 21.1063 105.446Z" fill="#4B0082"/>
<path d="M17.9991 102.274V104.304C17.9991 104.587 17.7698 104.817 17.4867 104.817C17.2036 104.817 16.9742 104.587 16.9742 104.304V102.274C16.9742 101.991 17.2036 101.762 17.4867 101.762C17.7703 101.762 17.9991 101.992 17.9991 102.274Z" fill="#4B0082"/>
<path d="M17.9991 106.588V108.618C17.9991 108.901 17.7698 109.13 17.4867 109.13C17.2036 109.13 16.9742 108.901 16.9742 108.618V106.588C16.9742 106.305 17.2036 106.075 17.4867 106.075C17.7703 106.075 17.9991 106.305 17.9991 106.588Z" fill="#4B0082"/>
<path d="M62.3746 34.7662V44.8848C62.3746 46.2224 63.4598 47.3075 64.7974 47.3075H83.1699L88.7165 49.2973C89.2859 49.5019 89.8311 48.9422 89.613 48.3787L87.5148 42.96V34.7656C87.5148 33.428 86.4296 32.3429 85.0909 32.3429H64.7974C63.4598 32.3434 62.3746 33.4286 62.3746 34.7662Z" fill="#9400D3" fill-opacity="0.42"/>
<path d="M78.3358 40.1134C78.3358 41.0814 79.1207 41.8662 80.0881 41.8662C81.0556 41.8662 81.841 41.0814 81.841 40.1134C81.841 39.1453 81.0562 38.361 80.0881 38.361C79.1201 38.361 78.3358 39.1453 78.3358 40.1134Z" fill="#4B0082"/>
<path d="M72.7877 40.1134C72.7877 41.0814 73.5725 41.8662 74.54 41.8662C75.508 41.8662 76.2923 41.0814 76.2923 40.1134C76.2923 39.1453 75.508 38.361 74.54 38.361C73.5725 38.3605 72.7877 39.1453 72.7877 40.1134Z" fill="#4B0082"/>
<path d="M67.2401 40.1134C67.2401 41.0814 68.0249 41.8662 68.9929 41.8662C69.9609 41.8662 70.7458 41.0814 70.7458 40.1134C70.7458 39.1453 69.9609 38.361 68.9929 38.361C68.0244 38.3605 67.2401 39.1453 67.2401 40.1134Z" fill="#4B0082"/>
</svg>
