<svg width="300" height="215" viewBox="0 0 300 215" fill="none" xmlns="http://www.w3.org/2000/svg">
<g clip-path="url(#clip0_144_760)">
<path d="M300 0H0V214.286H300V0Z" fill="white"/>
<path d="M258.332 186.868H34.2866C33.8905 186.868 33.5692 186.546 33.5692 186.15C33.5692 185.754 33.8905 185.433 34.2866 185.433H258.332C258.728 185.433 259.05 185.754 259.05 186.15C259.05 186.546 258.728 186.868 258.332 186.868Z" fill="#2E5B99"/>
<path d="M188.445 109.555L260.442 109.555V42.23L188.445 42.23V109.555Z" fill="#BAE2FF"/>
<path d="M69.103 161.878H117.58V118.315H69.103V161.878Z" fill="#E6F6FF"/>
<path d="M179.129 84.2372V78.1905C179.129 75.4446 181.354 73.2185 184.1 73.2185H237.026C239.772 73.2185 241.998 75.4446 241.998 78.1905V185.079H105.094V84.2372H179.129Z" fill="white"/>
<path d="M178.689 84.2372V78.1905C178.689 75.4446 180.914 73.2185 183.66 73.2185H236.586C239.332 73.2185 241.558 75.4446 241.558 78.1905V185.079H104.654V84.2372H178.689Z" fill="#4B0082"/>
<path d="M236.972 88.4156V185.079H110.151V87.9406L236.972 88.4156Z" fill="#BAE2FF"/>
<path d="M230.009 88.4156V185.079H103.188V87.9406L230.009 88.4156Z" fill="#1480CC"/>
<path d="M98.0755 84.238H223.365C225.937 84.238 227.831 85.9783 228.201 88.3845V185.079H91.4586L91.4589 90.8379C91.4278 87.3648 94.5621 84.238 98.0755 84.238Z" fill="white"/>
<path d="M144.032 120.133L217.26 120.338L217.416 64.6869L144.188 64.4818L144.032 120.133Z" fill="#EBF3FF"/>
<path d="M145.95 117.464L215.432 117.659L215.575 66.4979L146.093 66.3033L145.95 117.464Z" fill="#9400D3"/>
<path d="M209.576 113.536L164.924 113.411L189.338 89.9893L209.576 113.536Z" fill="#E3EEFF"/>
<path d="M189.273 113.479L151.755 113.374L172.113 94.0167L189.273 113.479Z" fill="#E3EEFF"/>
<path d="M179.047 88.4363C181.067 86.4169 181.067 83.1429 179.047 81.1235C177.028 79.1041 173.754 79.1041 171.735 81.1235C169.715 83.1429 169.715 86.4169 171.735 88.4363C173.754 90.4557 177.028 90.4557 179.047 88.4363Z" fill="#E3EEFF"/>
<path d="M134.278 113.468L202.166 113.685L202.355 54.6465L134.467 54.4293L134.278 113.468Z" fill="#E6E6E6"/>
<path d="M136.251 110.64L200.284 110.845L200.458 56.5704L136.425 56.3655L136.251 110.64Z" fill="#4B0082"/>
<path d="M194.172 64.0602H168.669V66.3007H194.172V64.0602Z" fill="white"/>
<path d="M142.287 72.351H194.172V70.1105H142.287V72.351Z" fill="white"/>
<path d="M142.287 78.5112H194.172V76.2707H142.287V78.5112Z" fill="white"/>
<path d="M97.4722 84.238H222.762C225.334 84.238 227.228 85.9783 227.597 88.3845V185.426H90.8552L90.8555 90.8378C90.8244 87.3648 93.9588 84.238 97.4722 84.238Z" fill="#9400D3"/>
<path d="M228.201 185.079H241.998V184.523H228.201V185.079Z" fill="white"/>
<path opacity="0.5" d="M241.998 125.136L236.972 128.416H230.332L228.201 130.055V128.498H91.4586V125.136H241.998Z" fill="black"/>
<path d="M88.6729 126.637L243.94 126.637V109.093L88.6729 109.093V126.637Z" fill="#4B0082"/>
<path d="M88.6729 126.637L229.963 126.637V109.093L88.6729 109.093V126.637Z" fill="#4B0082"/>
<path d="M190.902 109.093V126.63H178.626L187.234 109.093H190.902Z" fill="#0E0E0E"/>
<path d="M186.66 117.845C186.66 120.272 187.084 122.469 187.796 124.049C188.492 125.667 189.459 126.63 190.528 126.63H193.788V109.099H190.528C188.39 109.099 186.66 113.029 186.66 117.845ZM189.747 120.735C189.137 120.542 188.662 119.349 188.662 117.845C188.662 116.382 189.137 115.187 189.747 114.994C190.358 115.187 190.833 116.382 190.833 117.845C190.833 119.349 190.358 120.542 189.747 120.735Z" fill="#2475B3"/>
<path d="M188.321 117.845C188.321 120.272 188.764 122.469 189.51 124.049C190.238 125.667 191.249 126.63 192.368 126.63H193.788V109.099H192.368C190.131 109.099 188.321 113.029 188.321 117.845ZM189.883 117.845C189.883 116.382 190.806 115.187 191.445 114.994C192.084 115.187 192.581 116.382 192.581 117.845C192.581 119.349 192.084 120.542 191.445 120.735C190.806 120.542 189.883 119.349 189.883 117.845Z" fill="#3F9EE6"/>
<path d="M188.221 117.845C188.221 120.272 188.646 122.469 189.358 124.049C190.054 125.667 191.021 126.63 192.089 126.63H195.35V109.099H192.089C189.952 109.099 188.221 113.029 188.221 117.845ZM191.309 120.735C190.699 120.542 190.224 119.349 190.224 117.845C190.224 116.382 190.699 115.187 191.309 114.994C191.92 115.187 192.395 116.382 192.395 117.845C192.395 119.349 191.92 120.542 191.309 120.735Z" fill="#2475B3"/>
<path d="M189.882 117.845C189.882 120.272 190.326 122.469 191.071 124.049C191.799 125.667 192.811 126.63 193.929 126.63H195.35V109.099H193.929C191.693 109.099 189.882 113.029 189.882 117.845ZM191.445 117.845C191.445 116.382 191.942 115.187 192.58 114.994C193.22 115.187 193.717 116.382 193.717 117.845C193.717 119.349 193.22 120.542 192.58 120.735C191.942 120.542 191.445 119.349 191.445 117.845Z" fill="#61B3F2"/>
<path d="M192.074 126.745C191.935 126.745 191.141 126.708 190.301 125.901C189.347 124.986 188.211 122.918 188.211 118.266C188.211 113.834 189.247 111.553 190.117 110.419C191.074 109.171 192.03 108.994 192.07 108.987C192.132 108.976 192.191 109.018 192.202 109.08C192.213 109.142 192.171 109.201 192.109 109.211C192.1 109.213 191.186 109.388 190.282 110.578C189.441 111.685 188.439 113.917 188.439 118.266C188.439 122.827 189.533 124.842 190.45 125.728C191.284 126.534 192.078 126.518 192.085 126.516C192.149 126.514 192.201 126.563 192.203 126.626C192.205 126.689 192.157 126.742 192.094 126.744C192.092 126.745 192.085 126.745 192.074 126.745Z" fill="#1A5380"/>
<path d="M192.579 120.5C192.734 120.539 192.848 120.577 193.002 120.616C192.964 120.655 192.964 120.655 193.002 120.655C199.206 122.504 203.791 128.206 203.791 135.026V149.672H208.723V135.026C208.723 125.548 202.057 117.611 193.157 115.607C192.964 115.53 192.771 115.491 192.579 115.454C191.153 115.145 191.037 120.27 192.579 120.5Z" fill="#E6E6E6"/>
<path d="M186.741 115.191V120.096C180.384 120.914 175.251 125.631 173.886 131.794C173.847 131.947 173.809 132.063 173.809 132.179C173.732 132.526 173.693 132.833 173.655 133.181C173.578 133.797 173.539 134.414 173.539 135.03V149.675H168.646V135.03C168.646 124.672 176.606 116.185 186.741 115.191Z" fill="#E6E6E6"/>
<path d="M192.465 119.054C204.03 121.082 205.519 133.673 205.519 133.673V149.675H203.784V135.03C203.784 128.066 199.01 122.245 192.583 120.511C192.092 120.351 191.786 118.913 191.786 118.913C191.786 118.913 192.089 118.982 192.465 119.054Z" fill="#999999"/>
<path d="M186.741 119.054V120.096C180.384 120.914 175.251 125.631 173.886 131.794C174.163 128.197 177.146 120.335 186.741 119.054Z" fill="#808080"/>
<path d="M192.579 120.5C192.734 120.539 192.848 120.577 193.002 120.616C192.887 120.307 192.26 119.608 192.183 118.144C192.106 116.641 192.616 115.624 193.157 115.607C192.964 115.53 192.771 115.491 192.579 115.454C191.153 115.145 191.037 120.27 192.579 120.5Z" fill="#666666"/>
<path d="M212.955 145.679H164.368V185.395H212.955V145.679Z" fill="#F7AF0C"/>
<path d="M189.393 155.49C189.239 155.451 189.084 155.451 188.93 155.451C185.617 155.451 182.919 158.134 182.919 161.48C182.919 163.93 184.384 166.03 186.465 167.003V177.232C186.465 178.594 187.581 179.722 188.93 179.722C189.046 179.722 189.2 179.722 189.316 179.683H189.431C190.548 179.449 191.397 178.438 191.397 177.232V167.003C193.476 166.069 194.941 163.93 194.941 161.48C194.941 158.29 192.513 155.723 189.393 155.49Z" fill="#CC840A"/>
<path d="M189.393 155.49C186.272 155.683 183.805 158.29 183.805 161.48C183.805 163.93 185.27 166.03 187.351 167.003V177.232C187.351 178.438 188.198 179.449 189.316 179.683H189.43C190.548 179.449 191.396 178.438 191.396 177.232V167.003C193.476 166.069 194.941 163.93 194.941 161.48C194.941 158.29 192.513 155.723 189.393 155.49Z" fill="#803D00"/>
<path d="M179.786 185.395H164.368V145.679H168.646C168.646 145.679 167.51 174.984 179.786 185.395Z" fill="#E6950B"/>
<path d="M202.523 185.395C206.205 177.516 205.519 156.333 205.519 145.679H210.412V185.395H202.523Z" fill="#F7E4AD"/>
<path d="M152.41 148.57C152.41 148.57 147.425 148.409 142.513 148.643C137.411 148.893 132.382 149.567 133.1 151.327C133.261 151.723 133.291 152.104 133.203 152.485C132.177 157.192 113.57 160.71 109.465 157.822C106.4 155.667 97.9547 158.438 94.4945 159.933C87.9046 115.822 87.7205 70.7278 93.5561 67.5903C99.3916 64.467 115.564 68.4261 115.564 68.4261C115.564 68.4261 123.76 70.5961 127.103 93.0148C130.461 115.418 152.41 148.57 152.41 148.57Z" fill="#66B8FF"/>
<path d="M133.1 151.327C133.261 151.723 133.291 152.103 133.203 152.485C128.159 137.104 116.283 93.1611 120.593 105.14C124.728 116.694 137.704 140.095 142.513 148.643C137.411 148.893 132.382 149.567 133.1 151.327Z" fill="#66B8FF"/>
<path d="M92.9466 79.2536C88.1521 85.1186 87.2723 86.5407 82.7857 86.849C84.296 87.8018 85.1904 89.0919 85.8061 90.4851H85.8208C87.1404 93.3735 87.3311 96.746 89.6329 98.6371L86.8764 101.35L86.1727 102.053C86.1727 102.053 86.07 101.965 85.8942 101.804C84.6918 100.69 79.9119 96.1886 77.0676 92.0537C75.396 89.6492 74.3844 87.3765 75.0881 85.9544C76.2318 81.8195 79.1642 73.33 86.6273 70.7935C91.5245 65.4712 96.319 68.3303 98.0199 70.5443C100.292 73.5062 98.0052 79.84 92.9466 79.2536Z" fill="#002E73"/>
<path d="M89.6329 98.6371L86.8764 101.35L85.8941 101.804C84.7651 100.749 80.4544 96.7016 77.5806 92.7723C77.4046 92.5377 77.2287 92.2887 77.0674 92.0538C78.4896 92.0391 83.0642 91.9221 85.806 90.4852H85.8207C85.938 90.7344 86.0406 90.9835 86.1287 91.2327C87.1843 93.9306 87.5216 96.9071 89.6329 98.6371Z" fill="#231F20"/>
<path d="M86.1288 91.2325C83.0937 93.0804 79.6187 93.0217 77.5807 92.7721C77.4047 92.5376 77.2288 92.2885 77.0675 92.0537C78.4897 92.039 83.0643 91.9219 85.8062 90.4851H85.8208C85.9382 90.7343 86.0408 90.9834 86.1288 91.2325Z" fill="#66B8FF"/>
<path d="M87.5671 96.134C87.5671 96.134 90.7077 96.4257 91.6582 97.2525C92.4525 97.9433 91.9674 98.8058 91.9674 98.8058C93.6576 99.7562 91.9677 103.442 89.0165 104.352C86.0654 105.262 84.1318 99.7034 84.1318 99.7034C84.1318 99.7034 84.5814 96.3321 87.5671 96.134Z" fill="#231F20"/>
<path d="M127.191 185.591H116.537C116.317 185.466 116.155 185.324 116.059 185.163C115.51 177.239 114.72 173.424 114.72 173.424L122.14 173.122L123.82 179.017C126.306 180.716 129.269 184.361 127.191 185.591Z" fill="#231F20"/>
<path d="M115.729 185.734H128.36C128.68 185.734 128.573 183.977 128.253 183.977L115.697 184.048C115.367 184.048 115.399 185.734 115.729 185.734Z" fill="#231F20"/>
<path d="M111.327 101.197C113.051 105.836 120.387 127.088 118.293 142.388C121.174 152.563 120.269 161.182 122.867 176.041L115.305 176.44C112.232 158.309 108.849 161.769 107.871 143.814C101.64 129.735 98.4082 116.398 96.7504 102.667C95.138 92.315 107.847 86.8792 111.327 101.197Z" fill="#002E73"/>
<path d="M115.384 177.212C115.384 177.212 114.818 171.817 111.26 161.509C110.155 158.342 109.557 156.245 109.246 154.955C108.934 153.65 108.895 153.151 108.895 153.151C110.771 150.981 113.151 147.712 115.265 143.782C117.579 147.404 120.333 151.026 120.333 151.026C120.333 151.026 120.403 151.876 120.528 153.269C121.086 159.104 122.586 174.529 123.491 177.799C124.608 181.846 117.578 184.148 115.384 177.212Z" fill="#231F20"/>
<path d="M120.528 153.269C119.32 151.92 117.146 149.383 115.327 146.612C114.503 149.603 111.04 153.225 109.246 154.955C108.934 153.65 108.895 153.151 108.895 153.151C110.771 150.981 113.151 147.712 115.265 143.782C117.579 147.404 120.333 151.026 120.333 151.026C120.333 151.026 120.403 151.876 120.528 153.269Z" fill="#66B8FF"/>
<path d="M102.384 103.164C101.85 123.367 98.2489 140.528 98.2489 140.528C99.7739 154.312 96.3063 156.881 94.7397 176.601L87.9052 176.51C87.8879 168.507 87.4238 158.594 86.9375 142.546C82.6347 125.774 84.7072 113.421 86.3116 103.394C88.0237 92.0055 103.477 88.2365 102.384 103.164Z" fill="#002E73"/>
<path d="M94.7397 176.601C95.3493 179.866 95.7869 182.413 95.5308 185.368L78.9782 185.69C78.9782 185.69 77.3397 184.095 79.3998 181.701C81.4597 179.308 85.3717 180.692 87.9052 176.51L94.7397 176.601Z" fill="#231F20"/>
<path d="M78.2265 185.734H95.8127C96.133 185.734 96.0489 183.977 95.7286 183.977L78.2169 184.048C77.8873 184.048 77.8969 185.734 78.2265 185.734Z" fill="#231F20"/>
<path d="M98.0274 154.31C98.0274 154.31 97.9089 154.896 97.7074 155.893C96.8747 160.248 94.6411 172.403 94.9028 177.872C91.7958 181.582 87.7572 177.462 87.7572 177.462L86.1292 147.419L86.0178 145.395C90.4001 150.263 94.9523 152.859 98.0274 154.31Z" fill="#231F20"/>
<path d="M98.0274 154.31C98.0274 154.31 97.9089 154.896 97.7074 155.893C91.6703 154.134 87.9535 149.999 86.1292 147.419L86.0178 145.395C90.4001 150.263 94.9523 152.859 98.0274 154.31Z" fill="#66B8FF"/>
<path d="M86.8211 102.209C86.8211 105.702 111.632 104.691 111.632 101.197C111.549 95.4333 112.344 90.6896 113.428 86.7678C120.867 79.4801 120.423 73.8235 118.538 70.7544C115.288 65.4626 98.8678 65.7625 92.9562 68.037C90.6085 68.9405 87.4563 72.6202 86.448 78.4869C85.9296 81.503 88.1506 85.0152 88.5015 87.4535C89.3135 93.096 86.9862 101.399 86.8211 102.209Z" fill="#002E73"/>
<path d="M102.288 70.4379C103.512 69.4655 108.395 67.9653 109.694 66.9018L109.401 58.425L104.599 57.9575C103.207 58.0729 101.814 58.4067 100.617 58.8795L99.536 64.4612L99.2976 65.6715C98.7539 66.8629 99.8313 68.2994 102.288 70.4379Z" fill="#F7A594"/>
<path d="M107.785 60.3442C107.032 61.5034 103.879 64.4718 99.5361 64.4612L100.471 59.6321L107.785 60.3442Z" fill="#E6836F"/>
<path d="M97.158 49.1777C96.7816 50.8477 96.0058 54.5141 96.1326 56.2027C96.3257 58.7735 98.7269 61.6248 100.821 61.999C103.245 62.2459 106.512 61.5242 108.287 59.9998C109.274 58.8426 111.185 56.0976 112.065 53.6946C113.899 48.6825 110.358 44.2873 105.865 43.2721C101.372 42.2571 98.3318 43.9711 97.158 49.1777Z" fill="#F7A594"/>
<path d="M110.56 57.0057C111.497 55.3566 110.252 54.6885 108.887 55.9688C109.12 54.7245 110.539 51.0784 109.282 49.8694C107.863 48.4666 101.617 49.0771 98.2621 45.5785C98.2621 45.5785 100.763 40.0951 108.972 43.3334C118.243 48.2492 110.56 57.0057 110.56 57.0057Z" fill="#73382A"/>
<path d="M111.825 57.4429C112.54 56.5835 112.577 55.4368 111.909 54.8817C111.241 54.3266 110.121 54.5734 109.406 55.4328C108.692 56.2923 108.655 57.439 109.323 57.9941C109.991 58.5491 111.111 58.3024 111.825 57.4429Z" fill="#F7A594"/>
<path d="M99.5718 63.9724C100.392 65.4378 108.834 64.6758 109.596 63.4448L110.065 68.1343L102.21 72.5894L98.1063 68.0756L99.5718 63.9724Z" fill="#002E73"/>
<path d="M113.444 48.4099C113.212 44.3052 105.268 38.5126 99.5686 40.663C95.7248 42.1134 96.6263 46.194 99.9733 46.9646C102.924 47.644 111.098 44.1063 113.444 48.4099Z" fill="#231F20"/>
<path d="M98.8595 40.6761C98.8595 40.6761 99.0282 39.5055 99.6602 38.6303C95.2009 41.5513 97.4202 45.0443 97.4726 45.1933C99.2411 39.8235 103.461 40.0701 104.959 40.0891C101.104 38.2744 98.8979 40.5153 98.8595 40.6761Z" fill="#231F20"/>
<path d="M86.5113 103.394C92.9838 106.186 107.937 105.571 112.405 103.432L113.548 107.218C103.825 109.51 94.5239 109.574 85.6932 107.146L86.5113 103.394Z" fill="#66B8FF"/>
<path d="M129.822 94.5173C125.541 99.1065 116.509 104.341 116.509 104.341L113.738 100.353C116.611 98.7692 118.195 94.6637 120.937 91.8486C121.875 90.881 122.946 90.0745 124.236 89.5466C119.866 88.4175 117.667 87.3326 114.031 80.6905C108.943 80.3386 107.843 73.6822 110.615 71.204C112.697 69.3419 117.946 67.3921 121.787 73.5208C128.649 77.3768 131.582 85.793 131.948 90.0746C132.285 91.2913 131.362 92.8603 129.822 94.5173Z" fill="#002E73"/>
<path d="M116.222 98.2651C116.222 98.2651 113.081 97.9778 111.996 98.6169C111.089 99.1509 111.408 100.087 111.408 100.087C109.572 100.713 110.56 104.646 113.295 106.08C116.03 107.514 118.947 102.402 118.947 102.402C118.947 102.402 119.122 99.0056 116.222 98.2651Z" fill="#231F20"/>
<path d="M129.822 94.5173C129.558 94.7958 129.28 95.089 128.986 95.3675C124.47 99.7368 116.509 104.341 116.509 104.341L113.738 100.353C116.216 98.989 117.726 95.7634 119.852 93.0948C120.189 92.6553 120.556 92.2446 120.937 91.8487C122.007 92.479 125.204 94.165 129.822 94.5173Z" fill="#231F20"/>
<path d="M129.822 94.5173C129.558 94.7958 129.28 95.089 128.986 95.3675C125.116 95.1771 121.479 93.7842 119.852 93.0948C120.189 92.6553 120.556 92.2446 120.937 91.8487C122.007 92.479 125.204 94.165 129.822 94.5173Z" fill="#66B8FF"/>
<path d="M104.679 77.4196C104.681 77.4052 104.681 77.3987 104.681 77.3973C104.681 77.4 104.679 77.4196 104.679 77.4196Z" fill="#D9FFFF"/>
<path d="M104.679 77.4196C104.681 77.4052 104.681 77.3987 104.681 77.3973C104.681 77.4 104.679 77.4196 104.679 77.4196Z" fill="#D9FFFF"/>
<path d="M96.9283 76.3078C96.9283 76.3078 96.9307 76.2882 96.931 76.2855C96.9308 76.2869 96.9301 76.2933 96.9283 76.3078Z" fill="#D9FFFF"/>
<path d="M96.9283 76.3078C96.9283 76.3078 96.9307 76.2882 96.931 76.2855C96.9308 76.2869 96.9301 76.2933 96.9283 76.3078Z" fill="#D9FFFF"/>
<path d="M101.074 74.5062C101.845 75.7195 103.178 76.8179 104.674 77.4238C104.66 77.5387 104.585 78.1757 104.24 81.1115C103.78 85.0279 100.21 86.4449 99.6563 86.6615C99.1857 86.3291 96.0387 83.9174 96.499 80.001C96.844 77.0651 96.9189 76.4282 96.9324 76.3133C98.5182 76.1495 100.048 75.4617 101.074 74.5062Z" fill="white"/>
<path d="M100.667 76.5862C100.665 76.588 100.663 76.5895 100.661 76.5911C99.9161 77.1799 98.9325 77.5876 97.8847 77.7393L97.5903 80.2437C97.4555 81.3897 97.746 82.4835 98.4534 83.4947C98.8984 84.1307 99.391 84.5639 99.6649 84.7789C99.6772 84.7885 99.6896 84.7984 99.7009 84.8071C100.004 84.6846 100.607 84.4016 101.211 83.8902C102.128 83.1121 102.662 82.1366 102.797 80.9907L103.091 78.4861C102.11 78.0426 101.251 77.3685 100.667 76.5862Z" fill="#F7AF0C"/>
<path d="M98.5441 66.8232C98.9645 67.9053 100.369 68.8586 101.953 69.7875C105.17 69.261 107.638 68.265 110.052 66.8525C112.427 66.8414 114.136 67.7553 115.894 68.4297L101.869 70.7121L93.6317 67.6022C94.7273 67.2033 96.2959 66.9334 98.5441 66.8232Z" fill="#66B8FF"/>
<path d="M146.727 95.9278C146.726 95.8588 146.726 95.8284 146.726 95.8214C146.726 95.8342 146.727 95.9278 146.727 95.9278Z" fill="#D9FFFF"/>
<path d="M146.727 95.9278C146.726 95.8588 146.726 95.8284 146.726 95.8214C146.726 95.8342 146.727 95.9278 146.727 95.9278Z" fill="#D9FFFF"/>
<path d="M105.35 96.3835C105.35 96.3835 105.349 96.2899 105.349 96.2771C105.349 96.284 105.35 96.3144 105.35 96.3835Z" fill="#D9FFFF"/>
<path d="M105.35 96.3835C105.35 96.3835 105.349 96.2899 105.349 96.2771C105.349 96.284 105.35 96.3144 105.35 96.3835Z" fill="#D9FFFF"/>
<path d="M125.88 84.9366C130.735 90.0463 138.457 94.2094 146.703 95.9506C146.709 96.498 146.742 99.5304 146.898 113.508C147.105 132.153 129.338 141.382 126.58 142.798C123.89 141.587 105.777 132.608 105.57 113.963C105.415 99.9855 105.381 96.953 105.375 96.4057C113.58 94.4834 121.138 90.152 125.88 84.9366Z" fill="white"/>
<path d="M125.951 88.3063C130.702 92.5869 137.266 95.9329 144.471 97.7328L144.647 113.531C144.727 120.759 141.885 127.317 136.2 133.024C132.465 136.774 128.527 139.11 126.528 140.162C126.441 140.119 126.346 140.071 126.252 140.023L125.91 88.3432C125.924 88.3309 125.938 88.3188 125.951 88.3063Z" fill="#007880"/>
<path d="M125.91 88.3433L126.252 140.023C124.159 138.956 120.353 136.748 116.698 133.239C110.888 127.659 107.901 121.165 107.821 113.936L107.646 98.138C114.789 96.1858 121.259 92.71 125.91 88.3433Z" fill="#008F99"/>
<path d="M117.703 111.169L117.784 123.408C117.793 124.77 134.509 124.66 134.5 123.298L134.419 111.059L117.703 111.169ZM124.027 115.747C124.019 114.612 124.934 113.69 126.074 113.682C127.215 113.675 128.149 114.585 128.157 115.72C128.162 116.55 127.664 117.274 126.95 117.6L126.973 121.076C126.976 121.539 126.601 121.925 126.129 121.928C125.665 121.931 125.285 121.55 125.282 121.087L125.259 117.619C124.533 117.303 124.032 116.585 124.027 115.747Z" fill="white"/>
<path d="M119.16 110.287L120.852 110.276L120.847 109.452C120.828 106.596 123.147 104.258 126.015 104.239C128.883 104.22 131.233 106.528 131.252 109.383L131.257 110.208L132.949 110.196L132.944 109.372C132.919 105.588 129.805 102.53 126.004 102.555C122.202 102.579 119.13 105.678 119.155 109.463L119.16 110.287Z" fill="white"/>
</g>
<defs>
<clipPath id="clip0_144_760">
<rect width="300" height="214.286" fill="white"/>
</clipPath>
</defs>
</svg>
