<svg width="15" height="15" viewBox="0 0 22 26" fill="none" xmlns="http://www.w3.org/2000/svg">
<path d="M17.2433 0.209826C13.7913 -0.632935 10.193 1.13901 9.22934 4.16228C9.12181 4.49964 9.05785 4.84055 9.02235 5.18274C7.1124 5.263 5.28482 6.15933 4.25716 7.71226C3.47884 8.88947 3.27082 10.2617 3.67095 11.5758C3.87618 12.2492 4.23047 12.8646 4.70616 13.3978L0.0467471 20.4407C0.00696157 20.5011 -0.00814625 20.5715 0.00419186 20.6403L0.450394 23.159C0.466761 23.2501 0.528703 23.3299 0.619859 23.3758C0.673746 23.4029 0.733926 23.4168 0.794359 23.4168C0.836411 23.4168 0.878966 23.4099 0.919507 23.3963L3.63576 22.4803C3.71004 22.4554 3.77224 22.4086 3.81202 22.3484L4.20485 21.7524C4.24564 21.6904 4.26024 21.6183 4.24665 21.5478L4.04017 20.5048L5.17883 20.1419C5.33696 20.0914 5.43114 19.9491 5.40269 19.8041L5.19696 18.7542L6.3364 18.3913C6.49555 18.3408 6.58972 18.1979 6.56026 18.0522L6.35051 17.0092L7.49168 16.6471C7.56924 16.6227 7.63345 16.5753 7.67475 16.5131L8.47421 15.3014C8.56763 15.3129 8.66105 15.3173 8.75447 15.3248C8.84311 15.3689 8.93024 15.415 9.02189 15.4549L8.305 23.5704C8.29921 23.6396 8.31986 23.7086 8.36518 23.7659L10.0103 25.8677C10.0697 25.9438 10.1651 25.9921 10.2699 25.9991C10.2789 25.9998 10.288 26 10.2971 26C10.3928 26 10.4842 25.9656 10.5504 25.9043L12.5485 24.0499C12.6029 23.9992 12.6358 23.9337 12.6421 23.864L12.7021 23.1794C12.7084 23.1081 12.6857 23.0374 12.6381 22.9789L11.933 22.1144L12.7833 21.3548C12.9012 21.2491 12.9155 21.0849 12.8178 20.9643L12.1127 20.0997L12.9631 19.3401C13.0814 19.2343 13.0958 19.0695 12.9971 18.9494L12.2915 18.0879L13.1384 17.3276C13.1955 17.2766 13.2298 17.2096 13.2363 17.1384L13.3587 15.7453C15.5522 15.1363 17.2199 13.4151 17.4082 11.2866C17.413 11.2339 17.4102 11.1821 17.413 11.1296C19.5123 10.5594 21.1662 9.08225 21.7592 7.22191C22.7239 4.19339 20.7039 1.05541 17.2433 0.209826ZM9.45947 7.80483C9.62969 8.17704 9.84171 8.53577 10.097 8.86938C10.2041 9.00917 10.4201 9.04644 10.5795 8.95295C10.7394 8.85923 10.782 8.67005 10.6752 8.53025C10.4188 8.19509 10.2124 7.83171 10.0527 7.45465C10.4282 7.35079 10.7774 7.39092 11.0874 7.54813C11.7041 7.86058 11.9151 8.5538 11.558 9.09384C11.201 9.63361 10.4078 9.81817 9.79235 9.50595C9.16989 9.18997 8.96594 8.49763 9.32172 7.96047C9.3605 7.90204 9.41162 7.85489 9.45947 7.80483ZM4.85994 8.01783C5.75384 6.66597 7.33698 5.88519 8.9974 5.79894C9.00722 6.22626 9.05255 6.64193 9.21219 7.16249C9.0193 7.29501 8.84959 7.45839 8.71941 7.65486C8.16895 8.48746 8.49328 9.55116 9.44383 10.0332C10.3921 10.5138 11.6114 10.2296 12.1611 9.39925C12.7097 8.5684 12.3849 7.50144 11.4366 7.02073C10.9368 6.76782 10.3644 6.7321 9.85227 6.87124C9.76162 6.54005 9.70597 6.30609 9.69262 5.80382C10.4332 5.85365 11.1727 6.0371 11.8574 6.38393C14.3062 7.62509 15.1422 10.3646 13.7233 12.5096C11.4439 15.9562 5.51462 15.2619 4.34333 11.4188C3.9908 10.2621 4.17453 9.05393 4.85994 8.01783ZM7.75373 15.1754L7.13529 16.1125L5.83849 16.5237C5.67935 16.5742 5.58467 16.7173 5.61413 16.8629L5.82389 17.9062L4.68522 18.269C4.52709 18.3192 4.43291 18.4615 4.46137 18.6068L4.66709 19.6566L3.52765 20.0197C3.36952 20.0702 3.27534 20.2127 3.3038 20.3582L3.53898 21.5434L3.2708 21.9506L1.07205 22.692L0.710961 20.653L5.19284 13.8776C5.47058 14.1197 5.95105 14.4545 6.37682 14.6701C6.53773 14.7409 7.02099 15.0001 7.75373 15.1754ZM12.5524 16.9821L11.5899 17.8461C11.4721 17.9519 11.458 18.1162 11.5565 18.2364L12.2616 19.0974L11.4114 19.8568C11.2936 19.9624 11.2792 20.1267 11.3769 20.2473L12.082 21.1118L11.2317 21.8715C11.1138 21.9771 11.0995 22.1413 11.1972 22.262L11.9982 23.2443L11.9574 23.7111L10.3398 25.2122L9.00825 23.5108L9.69742 15.7058C10.0502 15.8134 10.6437 15.9327 11.132 15.9678C11.1415 15.9685 11.1506 15.9707 11.1599 15.9713C11.1655 15.9718 11.171 15.9711 11.1765 15.9715C11.7252 16.0073 12.3835 15.9473 12.6471 15.9056L12.5524 16.9821ZM16.7142 11.2403C16.4926 13.7456 13.9748 15.5479 11.213 15.3634C10.9365 15.3447 10.6673 15.305 10.4059 15.2487C11.9961 14.9753 13.4515 14.1368 14.3255 12.8156C15.6626 10.7936 15.2374 8.31056 13.4598 6.7153C15.5135 7.41028 16.894 9.21836 16.7142 11.2403ZM21.0888 7.05902C20.5784 8.66184 19.1819 9.93852 17.4006 10.4845C17.1798 8.05238 14.9926 6.05312 12.1363 5.82603C11.3696 5.44942 10.5462 5.24479 9.72073 5.1923C9.75372 4.9019 9.80836 4.61258 9.89976 4.32639C10.76 1.62662 13.9695 0.0425382 17.057 0.797297C20.1452 1.55138 21.9515 4.35394 21.0888 7.05902Z" fill="black"/>
</svg>
