<svg width="12" height="12" viewBox="0 0 18 19" fill="none" xmlns="http://www.w3.org/2000/svg">
<path d="M17.5942 17.659C17.356 16.7931 16.5334 15.2345 15.2995 14.4552C15.1913 14.3469 15.0181 14.217 14.7151 14.0655L11.6843 12.5934C11.4028 12.4635 11.2298 12.1821 11.2298 11.8791V10.8399C11.2947 10.7533 11.3813 10.6667 11.4463 10.5585C11.836 10.0173 12.1606 9.41106 12.3772 8.76167C12.8317 8.54515 13.1132 8.11228 13.1132 7.61427L13.113 6.40208C13.113 6.09895 13.0047 5.79601 12.7882 5.57945V3.97753C12.7882 3.93422 12.9398 2.83013 12.1388 1.94257C11.4894 1.20656 10.4286 0.816833 8.95661 0.816833C7.50625 0.816833 6.44548 1.18492 5.79605 1.94257C5.01672 2.85179 5.14666 3.93426 5.14666 3.93426V5.57949C4.99493 5.8175 4.88666 6.09898 4.88666 6.40213V7.63615C4.88666 8.02589 5.05988 8.37216 5.36284 8.61033C5.64432 9.71442 6.25041 10.5587 6.46693 10.84V11.8575C6.46693 12.139 6.31536 12.3987 6.05553 12.5502L3.24125 14.0656C2.98143 14.1955 2.80821 14.3037 2.70011 14.412C1.05487 15.1697 0.318863 16.6633 0.167312 17.7025L0.0808716 18.092H17.7024L17.5942 17.659ZM0.903385 17.4209C1.14156 16.5766 1.8126 15.5375 3.06828 14.9963L3.13323 14.9314C3.17654 14.8881 3.43637 14.7148 3.54463 14.6715L6.35891 13.1562C6.83509 12.8964 7.13823 12.3985 7.13823 11.8789V10.6232L7.05146 10.5151C7.05146 10.5151 6.27213 9.58422 5.96903 8.3502L5.94738 8.22028L5.83912 8.13385C5.6659 8.02559 5.55764 7.83071 5.55764 7.63601L5.55781 6.40199C5.55781 6.22877 5.62276 6.07721 5.75268 5.96895L5.86094 5.86069V3.869C5.86094 3.869 5.75268 3.02475 6.33712 2.35367C6.85661 1.76921 7.74417 1.4661 8.99985 1.4661C10.2339 1.4661 11.1431 1.76924 11.6626 2.35367C12.247 3.02471 12.1604 3.869 12.1388 3.91227V5.86065L12.247 5.96891C12.3769 6.07717 12.4419 6.22874 12.4419 6.40195V7.63597C12.4419 7.89579 12.2687 8.11215 12.0089 8.19877L11.8356 8.24207L11.814 8.41512C11.5975 9.06451 11.2945 9.64914 10.9264 10.1686C10.8398 10.2985 10.7532 10.4068 10.6666 10.4934L10.58 10.58V11.879C10.58 12.4418 10.9048 12.9398 11.4026 13.1994L14.4334 14.6714C14.5417 14.7147 14.8448 14.9313 14.8879 14.9746L14.9529 14.9096L14.8879 14.9962C15.7972 15.559 16.4682 16.6414 16.793 17.4208L0.903385 17.4209Z" fill="black"/>
</svg>
